<svg id="Layer_1" data-name="Layer 1" xmlns="http://www.w3.org/2000/svg" viewBox="0 0 896 1080"><defs><style>.cls-1{fill:none;stroke:#fff;stroke-linecap:round;stroke-linejoin:round;stroke-width:19.87px;}</style></defs><title>icon</title><g id="g2107"><g id="g2113"><path id="path2115" class="cls-1" d="M779.56,528.74A114.31,114.31,0,0,0,726.1,432a114.27,114.27,0,0,0-83.81-153.3c0-1,.07-2,.07-3.05A114.25,114.25,0,0,0,448,194.14a114.25,114.25,0,0,0-194.36,81.54c0,1,.05,2,.07,3.05A114.27,114.27,0,0,0,169.9,432a114.2,114.2,0,0,0,0,193.42,114.26,114.26,0,0,0,83.81,153.29c0,1-.07,2-.07,3A114.25,114.25,0,0,0,448,863.33a114.25,114.25,0,0,0,194.36-81.54c0-1-.05-2-.07-3A114.26,114.26,0,0,0,726.1,625.45,114.32,114.32,0,0,0,779.56,528.74Z"/></g><g id="g2117"><path id="path2119" class="cls-1" d="M169.85,625.43A114.37,114.37,0,0,1,276.5,552.36"/></g><g id="g2121"><path id="path2123" class="cls-1" d="M167.86,433.24a114.38,114.38,0,0,1,143.76,14.65"/></g><g id="g2125"><path id="path2127" class="cls-1" d="M253.71,278.73a114.23,114.23,0,0,1,103.64,31.2"/></g><g id="g2129"><path id="path2131" class="cls-1" d="M253.71,778.74a114.23,114.23,0,0,0,103.64-31.2"/></g><g id="g2133"><path id="path2135" class="cls-1" d="M726.1,432a114.39,114.39,0,0,1-106.66,73.06"/></g><g id="g2137"><path id="path2139" class="cls-1" d="M728.08,624.21a114.37,114.37,0,0,1-143.75-14.65"/></g><g id="g2141"><path id="path2143" class="cls-1" d="M642.29,278.73a114.21,114.21,0,0,0-103.64,31.21"/></g><g id="g2145"><path id="path2147" class="cls-1" d="M642.29,778.75a114.26,114.26,0,0,1-103.64-31.21"/></g><g id="g2149"><path id="path2151" class="cls-1" d="M448,194.14V863.33"/></g><g id="g2153"><path id="path2155" class="cls-1" d="M448,470.76h45.73a68.6,68.6,0,0,0,68.6-68.6"/></g><g id="g2157"><path id="path2159" class="cls-1" d="M448,585.09H402.27a68.6,68.6,0,0,0-68.6,68.6"/></g><g id="g2161"><path id="path2163" class="cls-1" d="M448,379.29H379.4"/></g><g id="g2165"><path id="path2167" class="cls-1" d="M516.6,676.55H448"/></g></g></svg>