<svg id="Layer_1" data-name="Layer 1" xmlns="http://www.w3.org/2000/svg" viewBox="0 0 896 1080"><defs><style>.cls-1{fill:#fff;}</style></defs><title>icon</title><path class="cls-1" d="M713.09,558.08A13.23,13.23,0,0,0,729,565.72c.48-.14,1-.31,1.43-.5a13.24,13.24,0,0,0,7.12-17.31c-32.25-77.43-84.14-129-122-158.64a13.24,13.24,0,1,0-16.33,20.84c35.35,27.68,83.8,75.83,113.86,148Z"/><path class="cls-1" d="M64.87,793a82.39,82.39,0,0,0,60,26.1H302.58a82,82,0,0,0,81.95-81.93v-223L440,486.66l55.47,27.58v223a82,82,0,0,0,81.95,81.93H755.09A82.13,82.13,0,0,0,837,731.22c-8-114.08-47.33-319-220.64-409.84a82.62,82.62,0,0,0-81.63,2.47,81.12,81.12,0,0,0-39.28,69.9V434l-8.38-4.93a5.89,5.89,0,0,1-2.89-5.29l9.27-191.29a31.84,31.84,0,0,0-8.83-23.7,32.55,32.55,0,0,0-23.46-10H418.8a32.51,32.51,0,0,0-23.46,10,31.92,31.92,0,0,0-8.83,23.7l9.28,191.39a5.86,5.86,0,0,1-2.89,5.21L384.52,434V393.77a81.14,81.14,0,0,0-39.28-69.91,82.65,82.65,0,0,0-81.65-2.46C90.32,412.18,51,617.14,43,731.23A82.44,82.44,0,0,0,64.87,793ZM522,449.61V393.75a54.83,54.83,0,0,1,26.53-47.26,56.36,56.36,0,0,1,55.63-1.64C766,429.68,803,624.51,810.6,733.07a55.65,55.65,0,0,1-55.51,59.58H577.42A55.53,55.53,0,0,1,522,737.19V527.41l32,15.9a32.34,32.34,0,0,0,44.39-16.94.67.67,0,0,1,.06-.12,32.2,32.2,0,0,0-13.69-39.69L522,449.62Zm-115.62,2.3a32.46,32.46,0,0,0,15.92-29.41L413,231.2a5.57,5.57,0,0,1,1.55-4.14,5.94,5.94,0,0,1,4.29-1.83h42.36a5.94,5.94,0,0,1,4.29,1.83A5.58,5.58,0,0,1,467,231.2l-9.27,191.2a32.49,32.49,0,0,0,15.9,29.5l97.56,57.46a6.32,6.32,0,0,1,1.59,1.35,5.79,5.79,0,0,1,.93,5.74,5.18,5.18,0,0,1-.61.89,6.24,6.24,0,0,1-.9,1.3,6.14,6.14,0,0,1-1.87,1.1c-.06,0-.12.09-.18.1a5.92,5.92,0,0,1-4.48-.28l-51.1-25.42h-.05L445.88,460a13.26,13.26,0,0,0-11.78,0l-68.66,34.14h-.06l-51.1,25.42a6,6,0,0,1-4.68.15,5.8,5.8,0,0,1-3.33-3.22A5.46,5.46,0,0,1,306,515c0-.18-.09-.35-.09-.51a76.56,76.56,0,0,1,.33-2,85.06,85.06,0,0,0,1-1.77,6.07,6.07,0,0,1,1.57-1.36l97.57-57.45Zm-130.45-107a57.2,57.2,0,0,1,26.49-6.56,56.26,56.26,0,0,1,29.16,8.19,54.83,54.83,0,0,1,26.53,47.26v55.86l-62.72,36.94a32.2,32.2,0,0,0-13.68,39.69.61.61,0,0,0,0,.12A32.36,32.36,0,0,0,326.1,543.3l32-15.9V737.17a55.51,55.51,0,0,1-55.47,55.46H124.91A55.64,55.64,0,0,1,69.4,733.07C77,624.5,114,429.67,275.86,344.85Z"/><path class="cls-1" d="M154,564.69a12.43,12.43,0,0,0,1.44.42,13.24,13.24,0,0,0,15.51-8.38c26.57-73.5,72.66-123.92,106.65-153.26a13.24,13.24,0,0,0-17.31-20C223.86,414.84,174.5,468.84,146,547.73a13.24,13.24,0,0,0,8,16.95Z"/></svg>