<svg id="Layer_1" data-name="Layer 1" xmlns="http://www.w3.org/2000/svg" viewBox="0 0 896 1080"><defs><style>.cls-1{fill:#fff;stroke:#fff;stroke-linecap:round;stroke-linejoin:round;stroke-width:2.01px;}</style></defs><title>icon</title><path class="cls-1" d="M783.21,384l-4-6.73A138,138,0,0,0,675.55,311.5a122.33,122.33,0,0,0-14.23-.91,118.46,118.46,0,0,0-97.16,186.3,7.16,7.16,0,0,1,0,8.24,116.88,116.88,0,0,0-15.33,30.47,7,7,0,0,1-1.72,2.8l-37.22,37.23c-.74.74-1.47,1.48-2.18,2.23A7.11,7.11,0,0,1,495.4,573V554.72a7.1,7.1,0,0,0-7.1-7.11h-9.49a7.11,7.11,0,0,0-7.11,7.11v99.55h.73a129.53,129.53,0,0,0-.73,13.55V884.19a7.11,7.11,0,0,0,7.11,7.11h9.49a7.11,7.11,0,0,0,7.1-7.11V667.82a106,106,0,0,1,31.24-75.42l5.69-5.68a7.1,7.1,0,0,1,12,3.91,112.5,112.5,0,0,0,2.94,13.55,7.1,7.1,0,0,1-1.8,7l-2.09,2.08a82.33,82.33,0,0,0-24.3,58.65V884.19a7.11,7.11,0,0,0,7.1,7.11h9.49a7.11,7.11,0,0,0,7.11-7.11V671.87a58.34,58.34,0,0,1,9.7-32.29,7.12,7.12,0,0,1,11.76-.12,118.57,118.57,0,0,0,97.05,50.37,121.4,121.4,0,0,0,14.06-.89A138,138,0,0,0,779.17,623.1l4-6.73a225.82,225.82,0,0,0,0-232.33ZM762.88,604.17l-4,6.73a114.37,114.37,0,0,1-86.07,54.47,96.14,96.14,0,0,1-11.45.75c-52.28,0-94.81-42.1-94.81-93.84a92.42,92.42,0,0,1,12.7-46.78,7.12,7.12,0,0,1,10.46-2,117.92,117.92,0,0,0,64.13,23.93,7.11,7.11,0,0,0,7.52-7.1v-9.52a7.12,7.12,0,0,0-6.65-7.08,94.94,94.94,0,0,1-88.16-94.58c0-56.15,49.5-100.72,106.44-94a114.22,114.22,0,0,1,85.89,54.45l4,6.73a202.05,202.05,0,0,1,0,207.93Z"/><path class="cls-1" d="M742.56,408.46l-4-6.77a90.3,90.3,0,0,0-67.85-43l-.94-.11a7.56,7.56,0,0,0-8.4,7.52v8.63a7.56,7.56,0,0,0,6.69,7.51h.08a66.6,66.6,0,0,1,50.1,31.65l4.06,6.77a154.69,154.69,0,0,1,13.43,28.73,7.54,7.54,0,0,0,9.28,4.72l8.23-2.45a7.57,7.57,0,0,0,5-9.73A177.5,177.5,0,0,0,742.56,408.46Z"/><path class="cls-1" d="M282.08,429.1a47.49,47.49,0,0,1-11,30.34,7.13,7.13,0,0,0,.18,9.41l6.47,7a7.1,7.1,0,0,0,10.57-.1,71.07,71.07,0,0,0-45.76-117.37,7.1,7.1,0,0,0-7.83,7.08v9.56a7.14,7.14,0,0,0,6.27,7.05A47.46,47.46,0,0,1,282.08,429.1Z"/><rect class="cls-1" x="471.7" y="156.53" width="23.7" height="367.38" rx="7.1"/><path class="cls-1" d="M400.6,573a7.11,7.11,0,0,1-12.31,4.83c-.71-.75-1.44-1.49-2.18-2.23L348.9,538.4a7,7,0,0,1-1.72-2.8,116.94,116.94,0,0,0-15.33-30.48,7.16,7.16,0,0,1,0-8.24,118.46,118.46,0,0,0-97.17-186.29,121.7,121.7,0,0,0-14.07.89,138,138,0,0,0-103.79,65.83l-4,6.73a225.85,225.85,0,0,0,0,232.33l4,6.73a137.92,137.92,0,0,0,103.62,65.81,120.31,120.31,0,0,0,14.23.92,118.55,118.55,0,0,0,97.05-50.37,7.11,7.11,0,0,1,11.75.12,58.32,58.32,0,0,1,9.71,32.29V884.19a7.11,7.11,0,0,0,7.11,7.11h9.49a7.11,7.11,0,0,0,7.1-7.11V674.83a90.09,90.09,0,0,0-26.38-63.7h0a7.08,7.08,0,0,1-1.81-7,112.92,112.92,0,0,0,2.94-13.55,7.1,7.1,0,0,1,12-3.91l5.68,5.68a106,106,0,0,1,31.24,75.42V884.19a7.11,7.11,0,0,0,7.1,7.11h9.49a7.11,7.11,0,0,0,7.11-7.11V667.82a129.83,129.83,0,0,0-.73-13.55h.73V163.63a7.1,7.1,0,0,0-7.11-7.1H407.7a7.1,7.1,0,0,0-7.1,7.1ZM223.05,665.35a114.21,114.21,0,0,1-85.89-54.44l-4-6.74a202,202,0,0,1,0-207.92l4-6.73a114.37,114.37,0,0,1,86.07-54.47,96.14,96.14,0,0,1,11.45-.76,94.81,94.81,0,0,1,6.65,189.39,7.12,7.12,0,0,0-6.65,7.08v9.52a7.11,7.11,0,0,0,7.52,7.1,117.92,117.92,0,0,0,64.14-23.94,7.11,7.11,0,0,1,10.46,2.06,92.59,92.59,0,0,1,12.69,46.78C329.49,627.86,280.09,672.09,223.05,665.35Z"/></svg>