<?xml version="1.0" encoding="utf-8"?>
<!-- Generator: Adobe Illustrator 24.0.2, SVG Export Plug-In . SVG Version: 6.00 Build 0)  -->
<svg version="1.1" id="Layer_1" xmlns="http://www.w3.org/2000/svg" xmlns:xlink="http://www.w3.org/1999/xlink" x="0px" y="0px"
	 viewBox="0 0 1024 1024" style="enable-background:new 0 0 1024 1024;" xml:space="preserve">
<style type="text/css">
	.st0{fill:#64A2BD;}
	.st1{fill:#DEA350;}
	.st2{fill:#5C976F;}
	.st3{fill:#BB6872;}
	.st4{fill:#925DE6;}
	.st5{fill:#CA4941;}
	.st6{fill:#2D3B7F;}
	.st7{fill:#FFFFFF;}
	.st8{fill:none;stroke:#FFFFFF;stroke-width:18.0104;stroke-linecap:round;stroke-linejoin:round;stroke-miterlimit:10;}
	.st9{fill:none;stroke:#FFFFFF;stroke-width:23.5118;stroke-linecap:round;stroke-linejoin:round;stroke-miterlimit:10;}
	.st10{fill:none;stroke:#FFFFFF;stroke-width:20.1529;stroke-linecap:round;stroke-linejoin:round;stroke-miterlimit:10;}
	.st11{fill:none;stroke:#FFFFFF;stroke-width:22.9223;stroke-linecap:round;stroke-linejoin:round;stroke-miterlimit:10;}
	.st12{fill:none;stroke:#FFFFFF;stroke-width:19.6477;stroke-linecap:round;stroke-linejoin:round;stroke-miterlimit:10;}
	.st13{fill:none;stroke:#FFFFFF;stroke-width:18.4735;stroke-linecap:round;stroke-linejoin:round;stroke-miterlimit:10;}
	.st14{fill:none;stroke:#FFFFFF;stroke-width:20;stroke-linecap:round;stroke-linejoin:round;stroke-miterlimit:10;}
	.st15{fill:none;stroke:#FFFFFF;stroke-width:10;stroke-miterlimit:10;}
	.st16{fill:none;stroke:#FFFFFF;stroke-width:20;stroke-miterlimit:10;}
	.st17{fill:none;stroke:#FFFFFF;stroke-width:16.6607;stroke-miterlimit:10;}
	.st18{fill:none;stroke:#FFFFFF;stroke-width:20.5133;stroke-linecap:round;stroke-linejoin:round;stroke-miterlimit:10;}
	.st19{fill:none;stroke:#FFFFFF;stroke-width:15;stroke-miterlimit:10;}
	.st20{fill:none;stroke:#FFFFFF;stroke-width:10;stroke-linecap:round;stroke-linejoin:round;stroke-miterlimit:10;}
	.st21{fill:none;stroke:#000000;stroke-width:6.62;stroke-linecap:round;stroke-linejoin:round;stroke-miterlimit:10;}
	.st22{fill:none;stroke:#FFFFFF;stroke-width:22.5062;stroke-linecap:round;stroke-linejoin:round;stroke-miterlimit:10;}
</style>
<path class="st3" d="M857.31,1024H166.69C74.63,1024,0,949.37,0,857.31V166.69C0,74.63,74.63,0,166.69,0h690.62
	C949.37,0,1024,74.63,1024,166.69v690.62C1024,949.37,949.37,1024,857.31,1024z"/>
<path class="st7" d="M319.42,609.06c31.59-10.23,58.22-1.3,82.54,19.12c26.6,22.34,56.53,27.17,89.09,15.85
	c6.18-2.15,12.19-4.76,18.21-7.33c0.61-3.21,1.09-7.9,0.19-13.39c-0.5-3.08-1.32-5.72-2.15-7.85
	c-16.69,8.53-31.31,11.82-41.08,13.23c-9.93,1.44-18.18,2.54-28.11-0.24c-11.19-3.14-16.93-8.17-26.58-16.6
	c-32.37-28.26-69.02-31.42-108.48-16.99c-8.28,3.03-12.34,7.01-13.45,16.15c-11.89,97.68,72.78,180.56,171.84,167.88
	c13.38-1.71,26.29-5.15,38.98-9.6c6.61-2.31,10.78-6,7.79-13.64c-2.77-7.08-8.01-7.05-14.02-4.58c-2.63,1.08-5.3,2.07-7.99,2.99
	c-88.72,30.45-180.06-35.5-179.15-128.99C307.17,615.51,310.75,611.87,319.42,609.06z"/>
<path class="st7" d="M821.77,642.96c-13.05-34.14-35.25-61.02-63.27-78.57c-38.54-24.14-91.82-24.34-101.31-22.33
	c-0.48,0.1-2.14,0.49-4.08-0.04c-8.17-2.21-10.45-17.57-11.74-24.44c-3.15-16.75-11.28-32.2-18.29-47.73
	c-44.05-97.56-103.18-185.93-166.74-271.55c-8.51-11.46-15.69-11.51-23.99-0.12c-18.89,25.95-38.06,51.72-55.99,78.32
	c-46.82,69.47-90.86,140.6-122.44,218.58c-20.13,49.71-29.51,101.08-22,154.96c16.7,119.87,119.48,198.61,239.94,183.29
	c19.06-2.42,37.41-7.62,55.09-15.1c5.09-2.15,10.17-4.79,6.97-11.66c-2.74-5.9-7.43-8.44-13.99-5.83c-2.64,1.05-5.26,2.17-7.94,3.14
	c-100.68,36.49-227.95-8.56-258.31-140.29c-12.73-55.24-3.94-108.43,17.48-159.68c42.58-101.88,102.57-193.56,167.51-282.27
	c5.94-8.12,8.62-3.36,12.26,1.52c23.12,30.94,45.2,62.62,65.81,95.26c43.62,69.09,85.99,138.86,110.83,217.59
	c2.61,8.28,1.83,11.98-6.6,15.5c-13.67,5.7-50.21,31.64-67.49,52.3c-10.56,12.62-15.29,24.45-19.49,34.97
	c-11.97,29.97-11.54,55.92-10.98,66.17c1.02,18.65,5.62,37.24,13.95,55.83c33.44,74.62,122.01,110.22,197.79,78.94
	C811.8,807.91,850.96,719.37,821.77,642.96z M673.69,831.64c-71.17-0.55-132.22-62.88-131.77-134.53
	c0.48-75.56,61.97-137.31,136.15-136.73c72.93,0.57,134.26,62.77,133.49,135.38C810.75,772.53,750.16,832.23,673.69,831.64z"/>
<path class="st7" d="M669.93,785.98l-44.21-45.94c-3.85-4-3.73-10.37,0.27-14.23c4-3.85,10.37-3.73,14.23,0.27l26.75,27.8
	l-0.72-123.5c0-0.02,0-0.04,0-0.06c0-5.53,4.47-10.03,10-10.06c5.56-0.03,10.09,4.45,10.12,10l0.72,123.56l26.1-27.67
	c3.81-4.04,10.18-4.23,14.22-0.41c2.1,1.98,3.16,4.65,3.16,7.32c0,2.48-0.91,4.96-2.74,6.9l-43.34,45.94
	c-1.89,2-4.52,3.14-7.27,3.16C674.48,789.08,671.84,787.96,669.93,785.98z"/>
</svg>
