<?xml version="1.0" encoding="utf-8"?>
<!-- Generator: Adobe Illustrator 24.0.2, SVG Export Plug-In . SVG Version: 6.00 Build 0)  -->
<svg version="1.1" id="Layer_1" xmlns="http://www.w3.org/2000/svg" xmlns:xlink="http://www.w3.org/1999/xlink" x="0px" y="0px"
	 viewBox="0 0 1024 1024" style="enable-background:new 0 0 1024 1024;" xml:space="preserve">
<style type="text/css">
	.st0{fill:#64A2BD;}
	.st1{fill:#DEA350;}
	.st2{fill:#5C976F;}
	.st3{fill:#BB6872;}
	.st4{fill:#925DE6;}
	.st5{fill:#CA4941;}
	.st6{fill:#2D3B7F;}
	.st7{fill:#FFFFFF;}
	.st8{fill:none;stroke:#FFFFFF;stroke-width:18.0104;stroke-linecap:round;stroke-linejoin:round;stroke-miterlimit:10;}
	.st9{fill:none;stroke:#FFFFFF;stroke-width:23.5118;stroke-linecap:round;stroke-linejoin:round;stroke-miterlimit:10;}
	.st10{fill:none;stroke:#FFFFFF;stroke-width:20.1529;stroke-linecap:round;stroke-linejoin:round;stroke-miterlimit:10;}
	.st11{fill:none;stroke:#FFFFFF;stroke-width:22.9223;stroke-linecap:round;stroke-linejoin:round;stroke-miterlimit:10;}
	.st12{fill:none;stroke:#FFFFFF;stroke-width:19.6477;stroke-linecap:round;stroke-linejoin:round;stroke-miterlimit:10;}
	.st13{fill:none;stroke:#FFFFFF;stroke-width:18.4735;stroke-linecap:round;stroke-linejoin:round;stroke-miterlimit:10;}
	.st14{fill:none;stroke:#FFFFFF;stroke-width:20;stroke-linecap:round;stroke-linejoin:round;stroke-miterlimit:10;}
	.st15{fill:none;stroke:#FFFFFF;stroke-width:10;stroke-miterlimit:10;}
	.st16{fill:none;stroke:#FFFFFF;stroke-width:20;stroke-miterlimit:10;}
	.st17{fill:none;stroke:#FFFFFF;stroke-width:16.6607;stroke-miterlimit:10;}
	.st18{fill:none;stroke:#FFFFFF;stroke-width:20.5133;stroke-linecap:round;stroke-linejoin:round;stroke-miterlimit:10;}
	.st19{fill:none;stroke:#FFFFFF;stroke-width:15;stroke-miterlimit:10;}
	.st20{fill:none;stroke:#FFFFFF;stroke-width:10;stroke-linecap:round;stroke-linejoin:round;stroke-miterlimit:10;}
	.st21{fill:none;stroke:#000000;stroke-width:6.62;stroke-linecap:round;stroke-linejoin:round;stroke-miterlimit:10;}
	.st22{fill:none;stroke:#FFFFFF;stroke-width:22.5062;stroke-linecap:round;stroke-linejoin:round;stroke-miterlimit:10;}
</style>
<path class="st3" d="M856.87,1024H166.25C74.19,1024-0.44,949.37-0.44,857.31V166.69C-0.44,74.63,74.19,0,166.25,0h690.62
	c92.06,0,166.69,74.63,166.69,166.69v690.62C1023.56,949.37,948.93,1024,856.87,1024z"/>
<g>
	<path class="st7" d="M468.61,483.54c-0.89-19.38,6.41-33.61,23.51-40.7c12.45-5.16,6.2-14.89,7.63-22.67
		c1.2-6.52-0.12-11.37-7.82-14.83c-19.53-8.78-27.29-26.68-22.24-47.23c4.37-17.79,19.06-29.57,36.65-29.38
		c18.45,0.19,34.27,13.14,38.29,31.33c4.19,18.96-4.82,37.92-23.48,45.67c-8.03,3.34-8.69,8.53-7.78,14.89
		c1.08,7.52-4.05,16.47,7.54,21.61c20.37,9.04,27.8,23.38,24.59,46.19c-1.59,11.29,8.29,11.22,13.04,16.17
		c4.54,4.74,7.95,1.03,11.82-1.95c14.92-11.44,33.08-11.11,46.63,0.42c15.11,12.86,17.66,32.85,6.79,53.11
		c-7.51,14-24.11,20.89-40.27,16.72c-17.78-4.6-29.62-20.86-28.38-40c0.48-7.37,1.25-13.31-6.5-18.48
		c-7.54-5.04-12.14-7.11-20.52-0.54c-13.45,10.54-31.15,9.24-45.02-0.75c-3.66-2.64-6.85-7.5-11.83-2.84
		c-5.67,5.31-16.89,5.71-15.34,17.64c0.87,6.7,0.62,13.5-1.71,20.08c-7.4,20.93-30.21,31.38-50.61,23.09
		c-21.29-8.65-30.22-34.3-19.29-55.39c10.68-20.61,34.14-27.43,54.1-15.44c5.91,3.55,10.4,9.56,18.56,3.01
		C463.96,497.64,473.28,494.36,468.61,483.54z M506.01,452.46c-13.79,0.16-25.51,12.94-25.45,27.74
		c0.07,15.98,11.59,27.65,26.88,27.21c14.61-0.41,26.42-12.32,26.56-26.78C534.16,465.24,521.28,452.29,506.01,452.46z
		 M506.59,342.2c-13.07-0.23-25.1,11.54-25.59,25.03c-0.54,14.95,10.89,28.34,24.61,28.83c14.14,0.51,26.63-11.69,27.04-26.41
		C533.04,355.22,520.93,342.45,506.59,342.2z M443.94,534.57c0.36-14.08-11.02-26.44-24.75-26.89
		c-13.74-0.45-25.95,11.06-26.65,25.13c-0.74,14.95,10.53,27.7,24.82,28.09C431.94,561.29,443.55,549.79,443.94,534.57z
		 M593.18,507.88c-13.52-0.34-25.66,11.72-25.99,25.79c-0.34,14.53,10.49,26.51,24.47,27.08c14.19,0.58,27.31-10.86,27.5-23.98
		C619.38,521.2,607.73,508.24,593.18,507.88z"/>
	<path class="st7" d="M785.08,641.86c-0.12,5.43-3,8.19-5.64,11.1c-18.81,20.74-37.88,41.25-56.28,62.34
		c-7.01,8.04-12.42,7.78-19.12,0.2c-8.46-9.56-17.36-18.72-25.97-28.15c-3.71-4.07-5.29-8.54-0.27-12.75
		c4.89-4.1,8.01,0.06,11.29,2.89c1.11,0.96,2.06,2.1,3.12,3.13c21.67,21.17,21.72,21.22,42.88-1.51
		c12.04-12.94,23.87-26.09,35.84-39.09c2.8-3.04,6.22-5.38,10.35-2.91C783.14,638.23,784.19,640.7,785.08,641.86z"/>
	<circle class="st17" cx="735.08" cy="679.11" r="128.85"/>
	<path class="st18" d="M713.81,514.46c-23.33-97.12-72.33-184.12-138.33-262.12c-2-2-5-4-7-6c-17-20-34-37-53-54c-1-1-4,0-5,1
		c-5,7-11,11-17,16c-1,1-2,3-3,4c-14,12-25,24-37,37c-2,2-5,4-7,6c-47,52-85,105-114,168c-1,2,0,3-1,5c-19,42-30,87-34,133
		c-2,27-2,53,4,80c0,2,0,3,0,5c11,60,41,111,93,146c1,1,2,2,3,3c65,43,144,43,210.12,11.88"/>
</g>
</svg>
