<?xml version="1.0" encoding="utf-8"?>
<!-- Generator: Adobe Illustrator 24.0.2, SVG Export Plug-In . SVG Version: 6.00 Build 0)  -->
<svg version="1.1" id="Layer_1" xmlns="http://www.w3.org/2000/svg" xmlns:xlink="http://www.w3.org/1999/xlink" x="0px" y="0px"
	 viewBox="0 0 1024 1024" style="enable-background:new 0 0 1024 1024;" xml:space="preserve">
<style type="text/css">
	.st0{fill:#64A2BD;}
	.st1{fill:#DEA350;}
	.st2{fill:#5C976F;}
	.st3{fill:#BB6872;}
	.st4{fill:#925DE6;}
	.st5{fill:#CA4941;}
	.st6{fill:#2D3B7F;}
	.st7{fill:#FFFFFF;}
	.st8{fill:none;stroke:#FFFFFF;stroke-width:18.0104;stroke-linecap:round;stroke-linejoin:round;stroke-miterlimit:10;}
	.st9{fill:none;stroke:#FFFFFF;stroke-width:23.5118;stroke-linecap:round;stroke-linejoin:round;stroke-miterlimit:10;}
	.st10{fill:none;stroke:#FFFFFF;stroke-width:20.1529;stroke-linecap:round;stroke-linejoin:round;stroke-miterlimit:10;}
	.st11{fill:none;stroke:#FFFFFF;stroke-width:22.9223;stroke-linecap:round;stroke-linejoin:round;stroke-miterlimit:10;}
	.st12{fill:none;stroke:#FFFFFF;stroke-width:19.6477;stroke-linecap:round;stroke-linejoin:round;stroke-miterlimit:10;}
	.st13{fill:none;stroke:#FFFFFF;stroke-width:18.4735;stroke-linecap:round;stroke-linejoin:round;stroke-miterlimit:10;}
	.st14{fill:none;stroke:#FFFFFF;stroke-width:20;stroke-linecap:round;stroke-linejoin:round;stroke-miterlimit:10;}
	.st15{fill:none;stroke:#FFFFFF;stroke-width:10;stroke-miterlimit:10;}
	.st16{fill:none;stroke:#FFFFFF;stroke-width:20;stroke-miterlimit:10;}
	.st17{fill:none;stroke:#FFFFFF;stroke-width:16.6607;stroke-miterlimit:10;}
	.st18{fill:none;stroke:#FFFFFF;stroke-width:20.5133;stroke-linecap:round;stroke-linejoin:round;stroke-miterlimit:10;}
	.st19{fill:none;stroke:#FFFFFF;stroke-width:15;stroke-miterlimit:10;}
	.st20{fill:none;stroke:#FFFFFF;stroke-width:10;stroke-linecap:round;stroke-linejoin:round;stroke-miterlimit:10;}
	.st21{fill:none;stroke:#000000;stroke-width:6.62;stroke-linecap:round;stroke-linejoin:round;stroke-miterlimit:10;}
	.st22{fill:none;stroke:#FFFFFF;stroke-width:22.5062;stroke-linecap:round;stroke-linejoin:round;stroke-miterlimit:10;}
</style>
<path class="st3" d="M856.87,1024H166.25C74.19,1024-0.44,949.37-0.44,857.31V166.69C-0.44,74.63,74.19,0,166.25,0h690.62
	c92.06,0,166.69,74.63,166.69,166.69v690.62C1023.56,949.37,948.93,1024,856.87,1024z"/>
<g>
	<path class="st7" d="M754.59,651.38c-0.18,4.77-2.8,7.16-5.09,9.66c-20.17,22.08-40.5,44.03-60.5,66.26
		c-5.76,6.4-10.89,7.53-17.2,1.06c-9.93-10.18-20.11-20.11-30.07-30.26c-3.86-3.93-7.93-8.27-2.6-13.82
		c5.34-5.57,9.74-1.86,13.73,2.15c6.22,6.26,12.85,12.22,18.32,19.1c6.63,8.33,11.06,6.14,17.14-0.79
		c16.5-18.79,33.57-37.07,50.54-55.43c2.91-3.15,6.07-6.89,11.32-4.07C752.99,646.76,754.34,649.22,754.59,651.38z"/>
	<path class="st22" d="M330.63,505.45c0.01-0.01,0.02-0.01,0.05-0.01h276.25c11.95,0,23.56-2.35,34.52-6.98
		c10.56-4.47,20.04-10.86,28.17-18.98c8.13-8.13,14.51-17.61,18.98-28.17c4.64-10.96,6.99-22.58,6.99-34.53
		c0-11.95-2.35-23.56-6.99-34.52c-4.47-10.57-10.85-20.04-18.98-28.17s-17.61-14.52-28.17-18.99c-10.96-4.63-22.57-6.98-34.52-6.98
		H382.04c-0.03-0.02-0.06-0.05-0.08-0.08v-0.1c0.02-0.02,0.05-0.06,0.08-0.08h72.1c21.69,0,42.08-8.44,57.42-23.78
		c15.34-15.34,23.79-35.73,23.79-57.43v-69.53h-88.54v45.77c0,9.08-7.36,16.44-16.44,16.44h-48.28c-11.95,0-23.57,2.35-34.53,6.98
		c-10.56,4.47-20.04,10.86-28.16,18.99c-8.13,8.13-14.52,17.6-18.99,28.17c-4.63,10.96-6.98,22.57-6.98,34.52
		c0,11.95,2.35,23.57,6.98,34.53c4.47,10.56,10.86,20.04,18.99,28.16c8.12,8.13,17.6,14.52,28.16,18.99
		c10.96,4.63,22.58,6.98,34.53,6.98h224.88c0.03,0.02,0.06,0.06,0.08,0.08v0.1c-0.02,0.03-0.05,0.06-0.08,0.08H330.67
		c-11.95,0-23.57,2.35-34.53,6.98c-10.56,4.47-20.04,10.86-28.17,18.99s-14.51,17.6-18.98,28.17c-4.64,10.96-6.99,22.57-6.99,34.52
		c0,11.95,2.35,23.57,6.99,34.53c4.47,10.56,10.85,20.04,18.98,28.17c8.13,8.12,17.61,14.51,28.17,18.98
		c10.96,4.63,22.58,6.98,34.53,6.98h265.96c0.02,0,0.04,0,0.05,0.01c0.03,0.01,0.06,0.05,0.08,0.07v0.1
		c-0.02,0.03-0.05,0.06-0.08,0.08H414.65c-11.95,0-23.56,2.35-34.52,6.98c-10.57,4.47-20.04,10.86-28.17,18.99
		s-14.52,17.6-18.98,28.17c-4.64,10.96-6.99,22.57-6.99,34.52s2.35,23.57,6.99,34.53c4.46,10.56,10.85,20.04,18.98,28.17
		c8.13,8.12,17.6,14.51,28.17,18.98c10.96,4.63,22.57,6.98,34.52,6.98h15.72c9.08,0,16.44,7.36,16.44,16.44v50.23h88.54v-73.99
		c0-21.88-8.6-42.44-24.19-57.82c-15.32-15.12-36.12-23.39-57.64-23.39H414.6c-0.02-0.02-0.06-0.05-0.07-0.08
		c-0.01-0.01-0.01-0.03-0.01-0.05s0-0.04,0.01-0.05c0.01-0.02,0.05-0.06,0.07-0.07c0.01-0.01,0.03-0.01,0.05-0.01H576.6
		c-0.06-1.46-0.09-2.93-0.09-4.4c0-60.03,44.41-109.68,102.18-117.88c-0.12-0.3-0.24-0.6-0.37-0.9
		c-4.47-10.57-10.85-20.04-18.98-28.17s-17.61-14.52-28.17-18.99c-10.96-4.63-22.58-6.98-34.53-6.98H330.63
		c-0.03-0.02-0.06-0.05-0.08-0.08v-0.1C330.57,505.5,330.6,505.46,330.63,505.45z"/>
	<path class="st16" d="M814.67,678.62c0,65.76-53.32,119.07-119.08,119.07c-64.3,0-116.68-50.95-118.99-114.67
		c-0.06-1.46-0.09-2.93-0.09-4.4c0-60.03,44.41-109.68,102.18-117.88c5.52-0.79,11.16-1.2,16.9-1.2
		C761.34,559.54,814.67,612.85,814.67,678.62z"/>
</g>
</svg>
