<?xml version="1.0" encoding="utf-8"?>
<!-- Generator: Adobe Illustrator 24.0.2, SVG Export Plug-In . SVG Version: 6.00 Build 0)  -->
<svg version="1.1" id="Layer_1" xmlns="http://www.w3.org/2000/svg" xmlns:xlink="http://www.w3.org/1999/xlink" x="0px" y="0px"
	 viewBox="0 0 1024 1024" style="enable-background:new 0 0 1024 1024;" xml:space="preserve">
<style type="text/css">
	.st0{fill:#64A2BD;}
	.st1{fill:#DEA350;}
	.st2{fill:#5C976F;}
	.st3{fill:#BB6872;}
	.st4{fill:#925DE6;}
	.st5{fill:#CA4941;}
	.st6{fill:#2D3B7F;}
	.st7{fill:#FFFFFF;}
	.st8{fill:none;stroke:#FFFFFF;stroke-width:18.0104;stroke-linecap:round;stroke-linejoin:round;stroke-miterlimit:10;}
	.st9{fill:none;stroke:#FFFFFF;stroke-width:23.5118;stroke-linecap:round;stroke-linejoin:round;stroke-miterlimit:10;}
	.st10{fill:none;stroke:#FFFFFF;stroke-width:20.1529;stroke-linecap:round;stroke-linejoin:round;stroke-miterlimit:10;}
	.st11{fill:none;stroke:#FFFFFF;stroke-width:22.9223;stroke-linecap:round;stroke-linejoin:round;stroke-miterlimit:10;}
	.st12{fill:none;stroke:#FFFFFF;stroke-width:19.6477;stroke-linecap:round;stroke-linejoin:round;stroke-miterlimit:10;}
	.st13{fill:none;stroke:#FFFFFF;stroke-width:18.4735;stroke-linecap:round;stroke-linejoin:round;stroke-miterlimit:10;}
	.st14{fill:none;stroke:#FFFFFF;stroke-width:20;stroke-linecap:round;stroke-linejoin:round;stroke-miterlimit:10;}
	.st15{fill:none;stroke:#FFFFFF;stroke-width:10;stroke-miterlimit:10;}
	.st16{fill:none;stroke:#FFFFFF;stroke-width:20;stroke-miterlimit:10;}
	.st17{fill:none;stroke:#FFFFFF;stroke-width:16.6607;stroke-miterlimit:10;}
	.st18{fill:none;stroke:#FFFFFF;stroke-width:20.5133;stroke-linecap:round;stroke-linejoin:round;stroke-miterlimit:10;}
	.st19{fill:none;stroke:#FFFFFF;stroke-width:15;stroke-miterlimit:10;}
	.st20{fill:none;stroke:#FFFFFF;stroke-width:10;stroke-linecap:round;stroke-linejoin:round;stroke-miterlimit:10;}
	.st21{fill:none;stroke:#000000;stroke-width:6.62;stroke-linecap:round;stroke-linejoin:round;stroke-miterlimit:10;}
	.st22{fill:none;stroke:#FFFFFF;stroke-width:22.5062;stroke-linecap:round;stroke-linejoin:round;stroke-miterlimit:10;}
</style>
<path class="st5" d="M857.75,1024H167.13C75.07,1024,0.44,949.37,0.44,857.31V166.69C0.44,74.63,75.07,0,167.13,0h690.62
	c92.06,0,166.69,74.63,166.69,166.69v690.62C1024.44,949.37,949.81,1024,857.75,1024z"/>
<path class="st7" d="M705.07,537.71c29.09,0,58.19-0.28,87.28,0.16c9.76,0.15,14.7-2.19,18.58-12.57
	c9.96-26.63,38.9-41.1,65.88-35.32c25.64,5.5,45.86,30.71,46.08,57.47c0.24,28.42-19.36,52.25-47.51,57.79
	c-27.88,5.49-54.52-8.66-64.72-36.68c-3.97-10.9-8.99-13.85-19.87-13.83c-59.51,0.11-119.03,0.12-178.52-1.21
	c-22.67-0.51-20.46,21.1-31.31,30.94c-8.98,8.14,1.96,14.17,6.14,19.63c25.74,33.56,52.27,66.51,77.94,100.13
	c5.94,7.78,11,10.2,21.3,8.45c29.22-4.96,55.73,12.15,65.12,39.81c8.74,25.74-1.8,55.1-24.84,69.18
	c-23.51,14.37-55.23,9.37-74.07-11.67c-18.21-20.34-19.35-50.93-1.25-74.65c6.27-8.22,7.3-13.16,0.59-21.67
	c-26.18-33.21-51.69-66.97-77.02-100.84c-6.6-8.83-11.25-13.28-23.63-6.67c-28.45,15.18-57.63,12.24-85-4.17
	c-7.64-4.58-12.79-5.71-21.12-0.74c-59.01,35.19-118.33,69.86-177.88,104.15c-11.85,6.82-18.22,13.56-17.45,29.05
	c1.35,27.54-19.87,51.05-46.58,56.07c-28.27,5.32-53.97-8.14-64.61-33.85c-10.67-25.79-2.85-55.39,18.79-71.12
	c23.12-16.81,54.11-15.4,74.55,4.27c6.56,6.31,10.74,11.5,21.18,5.28c57.88-34.52,116.08-68.5,174.54-102.01
	c12.57-7.2,12.74-13.3,7.01-26.27c-24.48-55.37,1.31-109.15,59.52-125.9c10.31-2.97,13.56-7.68,13.35-17.92
	c-0.5-24.44-0.87-48.96,0.42-73.35c0.79-14.96-2.2-23.44-17.96-29.44c-22.88-8.7-34.33-32.25-31.97-56.27
	c2.46-25.04,17.68-43.8,41.04-50.56c23.98-6.94,49.21,1.26,63.8,20.75c22.95,30.66,12.41,72.58-23.53,87.56
	c-12.61,5.25-16.88,11.38-16.32,24.56c1.06,25.08,1.02,50.24,0.31,75.34c-0.31,11.02,2.81,16.02,13.94,19.28
	c39.99,11.74,61.67,39.87,64.44,80.87c0.97,14.31,6.65,15.73,18.08,15.53c28.42-0.5,56.86-0.16,85.3-0.16
	C705.07,537.3,705.07,537.51,705.07,537.71z M586.21,525.45c-0.6-39.23-33.62-72.2-72.35-72.26c-37.73-0.06-72.38,35.99-72.24,75.15
	c0.14,40.31,31.77,71.7,71.96,71.4C552.62,599.46,586.81,564.48,586.21,525.45z M654.88,772.06c0.25,21.84,20.31,42.23,41.43,42.1
	c22.52-0.13,42.27-20.45,42.25-43.46c-0.02-23.06-19.96-43.3-42.47-43.09C674.06,727.82,654.61,748.8,654.88,772.06z M905.79,547.32
	c-0.31-24.16-19.57-43.57-42.63-42.98c-21.51,0.55-41.02,20.85-41.3,42.98c-0.3,22.82,19.98,42.7,43.39,42.54
	C887.81,589.7,906.08,570.53,905.79,547.32z M191.91,775.61c23.22-0.09,42.76-19.74,42.59-42.84
	c-0.17-23.17-19.84-42.68-42.96-42.62c-22.67,0.06-41.82,20.45-41.29,43.96C150.77,756.76,169.78,775.7,191.91,775.61z
	 M474.69,270.31c0.45,23.44,18.67,41.28,41.87,40.98c23.81-0.31,41.97-19.82,40.99-44.04c-0.92-22.79-20.38-41.12-42.91-40.43
	C492.67,227.49,474.26,247.53,474.69,270.31z"/>
</svg>
