<?xml version="1.0" encoding="utf-8"?>
<!-- Generator: Adobe Illustrator 24.0.2, SVG Export Plug-In . SVG Version: 6.00 Build 0)  -->
<svg version="1.1" id="Layer_1" xmlns="http://www.w3.org/2000/svg" xmlns:xlink="http://www.w3.org/1999/xlink" x="0px" y="0px"
	 viewBox="0 0 1024 1024" style="enable-background:new 0 0 1024 1024;" xml:space="preserve">
<style type="text/css">
	.st0{fill:#64A2BD;}
	.st1{fill:#DEA350;}
	.st2{fill:#5C976F;}
	.st3{fill:#BB6872;}
	.st4{fill:#925DE6;}
	.st5{fill:#CA4941;}
	.st6{fill:#2D3B7F;}
	.st7{fill:#FFFFFF;}
	.st8{fill:none;stroke:#FFFFFF;stroke-width:18.0104;stroke-linecap:round;stroke-linejoin:round;stroke-miterlimit:10;}
	.st9{fill:none;stroke:#FFFFFF;stroke-width:23.5118;stroke-linecap:round;stroke-linejoin:round;stroke-miterlimit:10;}
	.st10{fill:none;stroke:#FFFFFF;stroke-width:20.1529;stroke-linecap:round;stroke-linejoin:round;stroke-miterlimit:10;}
	.st11{fill:none;stroke:#FFFFFF;stroke-width:22.9223;stroke-linecap:round;stroke-linejoin:round;stroke-miterlimit:10;}
	.st12{fill:none;stroke:#FFFFFF;stroke-width:19.6477;stroke-linecap:round;stroke-linejoin:round;stroke-miterlimit:10;}
	.st13{fill:none;stroke:#FFFFFF;stroke-width:18.4735;stroke-linecap:round;stroke-linejoin:round;stroke-miterlimit:10;}
	.st14{fill:none;stroke:#FFFFFF;stroke-width:20;stroke-linecap:round;stroke-linejoin:round;stroke-miterlimit:10;}
	.st15{fill:none;stroke:#FFFFFF;stroke-width:10;stroke-miterlimit:10;}
	.st16{fill:none;stroke:#FFFFFF;stroke-width:20;stroke-miterlimit:10;}
	.st17{fill:none;stroke:#FFFFFF;stroke-width:16.6607;stroke-miterlimit:10;}
	.st18{fill:none;stroke:#FFFFFF;stroke-width:20.5133;stroke-linecap:round;stroke-linejoin:round;stroke-miterlimit:10;}
	.st19{fill:none;stroke:#FFFFFF;stroke-width:15;stroke-miterlimit:10;}
	.st20{fill:none;stroke:#FFFFFF;stroke-width:10;stroke-linecap:round;stroke-linejoin:round;stroke-miterlimit:10;}
	.st21{fill:none;stroke:#000000;stroke-width:6.62;stroke-linecap:round;stroke-linejoin:round;stroke-miterlimit:10;}
	.st22{fill:none;stroke:#FFFFFF;stroke-width:22.5062;stroke-linecap:round;stroke-linejoin:round;stroke-miterlimit:10;}
</style>
<path class="st2" d="M857.09,1024H166.47C74.41,1024-0.22,949.37-0.22,857.31V166.69C-0.22,74.63,74.41,0,166.47,0h690.62
	c92.06,0,166.69,74.63,166.69,166.69v690.62C1023.78,949.37,949.15,1024,857.09,1024z"/>
<g>
	<path class="st7" d="M202.39,417.56c-1.79-102.41,69.23-183.01,164.76-190.78c55.77-4.54,100.79,18.19,135.8,60.91
		c7.01,8.55,10.12,8.58,17.29,0.09c45.17-53.5,102.46-74.19,170.27-55.25c68.21,19.06,109.54,66.56,125.7,134.71
		c16.49,69.55-9.59,128.61-51.62,181.67c-70.62,89.16-152.71,167.27-237.7,242.49c-11.02,9.75-20.22,8.77-30.83-0.12
		c-89.91-75.4-174.44-156.23-245.25-250.13C222.37,503.44,202.13,461.13,202.39,417.56z M799.41,417.95
		c0.53-34.83-4.82-57.74-15.18-78.86c-25.98-52.99-67.59-86.27-127.48-91.06c-54.35-4.35-96.69,19.26-127.83,63.26
		c-16.51,23.33-17.42,23.58-33.93,0.35c-53.24-74.94-146.72-86.05-216.08-25.68c-64.11,55.8-74.69,149.32-22.8,224.64
		c68.37,99.23,154.99,181.46,246.95,258.44c8.11,6.79,12.31,3.5,18.45-1.72c34.32-29.14,67.05-60.03,98.86-91.83
		c52.28-52.27,105.19-104.09,146.44-166.1C787.43,478.42,798.71,444.35,799.41,417.95z"/>
	<path class="st7" d="M672.24,411.89c-0.65,6.22-4.9,9.23-8.24,12.7c-51.71,53.72-103.41,107.44-155.27,161.01
		c-15.76,16.28-18.6,15.98-34.1,0.14c-18.53-18.94-37.26-37.68-55.85-56.56c-4.86-4.94-10.33-10.39-3.66-17.28
		c6.77-6.99,13.41-3.69,19.14,2.19c15.49,15.87,31.34,31.43,46.19,47.89c8.11,8.99,13.11,8.93,21.67-0.09
		c47.08-49.61,94.85-98.56,142.43-147.69c3.83-3.96,7.49-8.79,12.25-11.01C665.52,399.12,670.7,403.52,672.24,411.89z"/>
</g>
</svg>
