<?xml version="1.0" encoding="utf-8"?>
<!-- Generator: Adobe Illustrator 24.0.2, SVG Export Plug-In . SVG Version: 6.00 Build 0)  -->
<svg version="1.1" id="Layer_1" xmlns="http://www.w3.org/2000/svg" xmlns:xlink="http://www.w3.org/1999/xlink" x="0px" y="0px"
	 viewBox="0 0 1024 1024" style="enable-background:new 0 0 1024 1024;" xml:space="preserve">
<style type="text/css">
	.st0{fill:#64A2BD;}
	.st1{fill:#DEA350;}
	.st2{fill:#5C976F;}
	.st3{fill:#BB6872;}
	.st4{fill:#925DE6;}
	.st5{fill:#CA4941;}
	.st6{fill:#2D3B7F;}
	.st7{fill:#FFFFFF;}
	.st8{fill:none;stroke:#FFFFFF;stroke-width:18.0104;stroke-linecap:round;stroke-linejoin:round;stroke-miterlimit:10;}
	.st9{fill:none;stroke:#FFFFFF;stroke-width:23.5118;stroke-linecap:round;stroke-linejoin:round;stroke-miterlimit:10;}
	.st10{fill:none;stroke:#FFFFFF;stroke-width:20.1529;stroke-linecap:round;stroke-linejoin:round;stroke-miterlimit:10;}
	.st11{fill:none;stroke:#FFFFFF;stroke-width:22.9223;stroke-linecap:round;stroke-linejoin:round;stroke-miterlimit:10;}
	.st12{fill:none;stroke:#FFFFFF;stroke-width:19.6477;stroke-linecap:round;stroke-linejoin:round;stroke-miterlimit:10;}
	.st13{fill:none;stroke:#FFFFFF;stroke-width:18.4735;stroke-linecap:round;stroke-linejoin:round;stroke-miterlimit:10;}
	.st14{fill:none;stroke:#FFFFFF;stroke-width:20;stroke-linecap:round;stroke-linejoin:round;stroke-miterlimit:10;}
	.st15{fill:none;stroke:#FFFFFF;stroke-width:10;stroke-miterlimit:10;}
	.st16{fill:none;stroke:#FFFFFF;stroke-width:20;stroke-miterlimit:10;}
	.st17{fill:none;stroke:#FFFFFF;stroke-width:16.6607;stroke-miterlimit:10;}
	.st18{fill:none;stroke:#FFFFFF;stroke-width:20.5133;stroke-linecap:round;stroke-linejoin:round;stroke-miterlimit:10;}
	.st19{fill:none;stroke:#FFFFFF;stroke-width:15;stroke-miterlimit:10;}
	.st20{fill:none;stroke:#FFFFFF;stroke-width:10;stroke-linecap:round;stroke-linejoin:round;stroke-miterlimit:10;}
	.st21{fill:none;stroke:#000000;stroke-width:6.62;stroke-linecap:round;stroke-linejoin:round;stroke-miterlimit:10;}
	.st22{fill:none;stroke:#FFFFFF;stroke-width:22.5062;stroke-linecap:round;stroke-linejoin:round;stroke-miterlimit:10;}
</style>
<path class="st2" d="M857.09,1024H166.47C74.41,1024-0.22,949.37-0.22,857.31V166.69C-0.22,74.63,74.41,0,166.47,0h690.62
	c92.06,0,166.69,74.63,166.69,166.69v690.62C1023.78,949.37,949.15,1024,857.09,1024z"/>
<g>
	<path class="st7" d="M761.83,236.25c0.15-14.16-5.95-19.08-19.85-17.54c-50.26,5.59-100.49,11.1-149.75,23.16
		c-68.73,16.83-134.82,39.74-188.61,88.06c-83.6,75.09-131.36,209.84-39.64,334.32c6.44,8.74,4.49,13.94-1.18,21.21
		c-27.27,35.01-56.77,67.83-91.24,95.97c-6.46,5.28-14.56,10.62-6.41,19.83c8.16,9.22,14.78,1.59,20.67-3.89
		c33.79-31.45,66.99-63.49,94.04-101.18c5.05-7.04,9.25-9.94,18.61-6.01c16.03,6.73,32.15,11.47,48.32,14.4
		c25.59,4.63,80.34,4.39,124.02-10.01c0,0,102.5-33.8,155.17-131.94c11.22-20.92,15.57-42.43,15.57-42.43
		c9.06-41.95,0.22-82.27-4.33-82.23c-3.26,0.03-2.46,20.7-9.05,50.92c-4.94,22.65-15.85,70.25-53.34,114.56
		c-39.07,46.17-86.65,64.95-109.7,72.28c-25.78,6.2-47.88,9.02-64.44,10.4c0,0-38.57,3.21-82.67-10.16
		c-3.54-1.07-10.33-3.37-11.88-8.55c-0.95-3.16,0.37-7.21,4.67-12.73c15.51-19.93,30.09-40.61,44.45-61.4
		c3.69-5.34,7.77-7.64,12.76-7.86c2.18-7.49,6.02-13.68,11.15-18.13c-2.15-2.23-1.23-6.06,3.73-12.35
		c10.16-12.88,18.98-26.82,28.99-39.83c30.45-39.55,61.27-78.81,91.72-118.36c3.92-5.09,11.37-11.26,3.8-17.86
		c-7.57-6.62-12.84,1.42-16.99,6.25c-12.35,14.38-25.46,28.24-36.09,43.93c-7.79,11.49-2.14,2.01-38.27,49.28
		c-23,30.09-34.03,45.43-36.23,48.44c-4.14,5.65-8.23,11.34-12.24,17.08c-5.66,8.11-9.56,10.87-13.55,5.57
		c-2.03,6.17-5.59,11.85-10.81,16.67c-0.54,0.5-1.11,0.97-1.68,1.42c2.74,4.92,0.98,9.19-2.59,14.05
		c-16.11,21.86-32.11,43.81-47.76,66c-6.66,9.45-11.63,7.44-16.7-1.04c-22.32-37.4-38.88-76.88-38.76-121.2
		c0.23-82.4,35.5-147.8,101.42-195.7c87.31-63.45,190.26-77.76,293.76-89.22c11.75-1.3,11.47,6.26,11.51,14.35
		c0.28,51.21-2.55,102.31-5.32,153.42c-1.88,34.74-6.18,69.16-13.2,103.25c0,0-2.29,9.77,0.04,10.69c1.79,0.71,4.68-5.72,8.47-5.23
		c3.47,0.46,4.34,6.31,6.72,6.08c1.77-0.18,3.3-3.44,4.06-7.47c0.58-3.1,1.38-6.16,2.05-9.24c12.36-57.12,14.09-115.24,16.45-175.99
		C761.72,300.7,761.48,268.47,761.83,236.25z"/>
	<path class="st9" d="M432.29,466.55c-12.83,38.87-0.34,80.58,29.9,103c35.9,26.61,78.79,12.68,82.71,11.33"/>
	<path class="st10" d="M491.49,407.36c-12.83,38.87-0.34,80.58,29.9,103c35.9,26.61,78.79,12.68,82.71,11.33"/>
	<path class="st10" d="M548.15,350.69c-12.83,38.87-0.34,80.58,29.9,103c35.9,26.61,78.79,12.68,82.71,11.33"/>
	<circle class="st7" cx="433.25" cy="463.62" r="18.26"/>
	<circle class="st7" cx="493.36" cy="403.51" r="18.26"/>
	<circle class="st7" cx="552.01" cy="344.86" r="18.26"/>
	<circle class="st7" cx="669.85" cy="462.7" r="18.26"/>
	<circle class="st7" cx="610.94" cy="521.61" r="18.26"/>
	<circle class="st7" cx="555.14" cy="577.4" r="18.26"/>
	<path class="st7" d="M614.89,348.27c0-10.08,11.42-15.16,18.26-18.26c3.1-1.4,16.08-7.28,21.02-2.06
		c4.58,4.84-0.74,16.06-2.76,20.32c-3.54,7.46-8.55,18.26-18.26,18.26C623.06,366.53,614.89,358.35,614.89,348.27z"/>
</g>
</svg>
