<?xml version="1.0" encoding="utf-8"?>
<!-- Generator: Adobe Illustrator 24.0.2, SVG Export Plug-In . SVG Version: 6.00 Build 0)  -->
<svg version="1.1" id="Layer_1" xmlns="http://www.w3.org/2000/svg" xmlns:xlink="http://www.w3.org/1999/xlink" x="0px" y="0px"
	 viewBox="0 0 1024 1024" style="enable-background:new 0 0 1024 1024;" xml:space="preserve">
<style type="text/css">
	.st0{fill:#64A2BD;}
	.st1{fill:#DEA350;}
	.st2{fill:#5C976F;}
	.st3{fill:#BB6872;}
	.st4{fill:#925DE6;}
	.st5{fill:#CA4941;}
	.st6{fill:#2D3B7F;}
	.st7{fill:#FFFFFF;}
	.st8{fill:none;stroke:#FFFFFF;stroke-width:18.0104;stroke-linecap:round;stroke-linejoin:round;stroke-miterlimit:10;}
	.st9{fill:none;stroke:#FFFFFF;stroke-width:23.5118;stroke-linecap:round;stroke-linejoin:round;stroke-miterlimit:10;}
	.st10{fill:none;stroke:#FFFFFF;stroke-width:20.1529;stroke-linecap:round;stroke-linejoin:round;stroke-miterlimit:10;}
	.st11{fill:none;stroke:#FFFFFF;stroke-width:22.9223;stroke-linecap:round;stroke-linejoin:round;stroke-miterlimit:10;}
	.st12{fill:none;stroke:#FFFFFF;stroke-width:19.6477;stroke-linecap:round;stroke-linejoin:round;stroke-miterlimit:10;}
	.st13{fill:none;stroke:#FFFFFF;stroke-width:18.4735;stroke-linecap:round;stroke-linejoin:round;stroke-miterlimit:10;}
	.st14{fill:none;stroke:#FFFFFF;stroke-width:20;stroke-linecap:round;stroke-linejoin:round;stroke-miterlimit:10;}
	.st15{fill:none;stroke:#FFFFFF;stroke-width:10;stroke-miterlimit:10;}
	.st16{fill:none;stroke:#FFFFFF;stroke-width:20;stroke-miterlimit:10;}
	.st17{fill:none;stroke:#FFFFFF;stroke-width:16.6607;stroke-miterlimit:10;}
	.st18{fill:none;stroke:#FFFFFF;stroke-width:20.5133;stroke-linecap:round;stroke-linejoin:round;stroke-miterlimit:10;}
	.st19{fill:none;stroke:#FFFFFF;stroke-width:15;stroke-miterlimit:10;}
	.st20{fill:none;stroke:#FFFFFF;stroke-width:10;stroke-linecap:round;stroke-linejoin:round;stroke-miterlimit:10;}
	.st21{fill:none;stroke:#000000;stroke-width:6.62;stroke-linecap:round;stroke-linejoin:round;stroke-miterlimit:10;}
	.st22{fill:none;stroke:#FFFFFF;stroke-width:22.5062;stroke-linecap:round;stroke-linejoin:round;stroke-miterlimit:10;}
</style>
<path class="st2" d="M857.09,1024H166.47C74.41,1024-0.22,949.37-0.22,857.31V166.69C-0.22,74.63,74.41,0,166.47,0h690.62
	c92.06,0,166.69,74.63,166.69,166.69v690.62C1023.78,949.37,949.15,1024,857.09,1024z"/>
<path class="st7" d="M640.85,598.93c0.41,109.77-75.28,213.66-201.02,224.69c-98.33,8.63-198.55-69.12-219.77-173.59
	c-9.82-48.35-1.9-94.59,17.28-138.78c42.71-98.35,100.96-187.85,160.88-276.29c4.96-7.32,10.01-14.58,15.03-21.86
	c12.16-17.62,18.55-17.9,30.76-0.61c50.69,71.78,96.94,146.34,139.65,223.14c18.14,32.63,34.65,65.9,45.8,101.69
	C636.47,559.82,641.4,582.5,640.85,598.93z M619.67,609.84c0.35-30.45-5.57-59.48-17.5-87.02
	c-44.15-101.98-105.92-193.75-166.67-286.11c-7.29-11.09-10.11-3.38-14.14,2.38c-38.43,54.89-74.29,111.42-107.66,169.51
	c-27.36,47.64-55.83,94.99-69.2,148.99c-20,80.82,2.01,149.7,66.19,202.04c59.59,48.59,127.69,57.36,197.23,23.89
	C579.61,749.03,615.18,688.67,619.67,609.84z"/>
<path class="st7" d="M304.18,607.72c1.56-29.24,11.87-60.48,31.11-88.77c4.03-5.93,8.68-11.77,16.59-10.14
	c9.22,1.9,9.63,10.3,10.91,17.83c5.24,30.66,20.53,52.87,50.4,65.43c37.53,15.79,52.58,49.3,39.02,81.97
	c-13.32,32.08-51.76,47.33-87.67,34.8C328.63,696.31,304.54,657.89,304.18,607.72z"/>
<g>
	<path class="st7" d="M748.61,777.81l-33.81-35.14c-2.95-3.06-2.85-7.93,0.21-10.88c3.06-2.95,7.93-2.85,10.88,0.21l20.46,21.27
		l-0.55-94.46c0-0.02,0-0.03,0-0.05c0-4.23,3.42-7.67,7.65-7.69c4.25-0.03,7.72,3.4,7.74,7.65l0.55,94.5l19.96-21.16
		c2.92-3.09,7.79-3.23,10.88-0.32c1.6,1.51,2.41,3.55,2.41,5.6c0,1.89-0.7,3.79-2.1,5.28l-33.15,35.14
		c-1.44,1.53-3.45,2.4-5.56,2.41C752.09,780.18,750.07,779.33,748.61,777.81z"/>
	<path class="st7" d="M753.51,419.45L753.51,419.45c-4.25,0-7.69,3.44-7.69,7.69v235.5h15.37v-235.5
		C761.19,422.89,757.75,419.45,753.51,419.45z"/>
</g>
</svg>
