<?xml version="1.0" encoding="utf-8"?>
<!-- Generator: Adobe Illustrator 24.0.2, SVG Export Plug-In . SVG Version: 6.00 Build 0)  -->
<svg version="1.1" id="Layer_1" xmlns="http://www.w3.org/2000/svg" xmlns:xlink="http://www.w3.org/1999/xlink" x="0px" y="0px"
	 viewBox="0 0 1024 1024" style="enable-background:new 0 0 1024 1024;" xml:space="preserve">
<style type="text/css">
	.st0{fill:#64A2BD;}
	.st1{fill:#DEA350;}
	.st2{fill:#5C976F;}
	.st3{fill:#BB6872;}
	.st4{fill:#925DE6;}
	.st5{fill:#CA4941;}
	.st6{fill:#2D3B7F;}
	.st7{fill:#FFFFFF;}
	.st8{fill:none;stroke:#FFFFFF;stroke-width:18.0104;stroke-linecap:round;stroke-linejoin:round;stroke-miterlimit:10;}
	.st9{fill:none;stroke:#FFFFFF;stroke-width:23.5118;stroke-linecap:round;stroke-linejoin:round;stroke-miterlimit:10;}
	.st10{fill:none;stroke:#FFFFFF;stroke-width:20.1529;stroke-linecap:round;stroke-linejoin:round;stroke-miterlimit:10;}
	.st11{fill:none;stroke:#FFFFFF;stroke-width:22.9223;stroke-linecap:round;stroke-linejoin:round;stroke-miterlimit:10;}
	.st12{fill:none;stroke:#FFFFFF;stroke-width:19.6477;stroke-linecap:round;stroke-linejoin:round;stroke-miterlimit:10;}
	.st13{fill:none;stroke:#FFFFFF;stroke-width:18.4735;stroke-linecap:round;stroke-linejoin:round;stroke-miterlimit:10;}
	.st14{fill:none;stroke:#FFFFFF;stroke-width:20;stroke-linecap:round;stroke-linejoin:round;stroke-miterlimit:10;}
	.st15{fill:none;stroke:#FFFFFF;stroke-width:10;stroke-miterlimit:10;}
	.st16{fill:none;stroke:#FFFFFF;stroke-width:20;stroke-miterlimit:10;}
	.st17{fill:none;stroke:#FFFFFF;stroke-width:16.6607;stroke-miterlimit:10;}
	.st18{fill:none;stroke:#FFFFFF;stroke-width:20.5133;stroke-linecap:round;stroke-linejoin:round;stroke-miterlimit:10;}
	.st19{fill:none;stroke:#FFFFFF;stroke-width:15;stroke-miterlimit:10;}
	.st20{fill:none;stroke:#FFFFFF;stroke-width:10;stroke-linecap:round;stroke-linejoin:round;stroke-miterlimit:10;}
	.st21{fill:none;stroke:#000000;stroke-width:6.62;stroke-linecap:round;stroke-linejoin:round;stroke-miterlimit:10;}
	.st22{fill:none;stroke:#FFFFFF;stroke-width:22.5062;stroke-linecap:round;stroke-linejoin:round;stroke-miterlimit:10;}
</style>
<path class="st5" d="M857.75,1024H167.13C75.07,1024,0.44,949.37,0.44,857.31V166.69C0.44,74.63,75.07,0,167.13,0h690.62
	c92.06,0,166.69,74.63,166.69,166.69v690.62C1024.44,949.37,949.81,1024,857.75,1024z"/>
<g>
	<path class="st7" d="M757.12,290.23c-116.62,0.38-214.16,103.34-214.2,226.12c-0.04,116.84,100.74,217.6,217.46,217.42
		c118-0.18,216.67-100.64,216.1-220.01C975.91,392.4,875.27,289.84,757.12,290.23z M903.6,631.06c-6.32-6.5-13.66-12.11-19.14-19.34
		c-5.4-7.12-13.96-17.08-27.58-28.81c-0.81,2.49-1.94,5.36-3.55,8.43c-2.02,3.85-4.24,6.94-6.21,9.32
		c11.86,15.02,21.66,23.21,28.56,27.96c6.82,4.69,11.87,11.54,17.9,17.2c7.27,6.83,5.16,10.81-1.1,16.64
		c-37.45,34.93-81.93,51.77-129.79,52.83c-139.81-0.86-238.68-142.67-187.21-275.29c8.54-22.01,20.79-41.55,35.3-59.96
		c1.5-1.9,3.9-5.05,7.29-5.24c0,0,1.8-0.1,3.68,0.91c6.4,3.42,48.75,48.49,53.47,53.52c1.4-1.91,3.56-4.42,6.65-6.8
		c3.01-2.32,5.9-3.73,8.07-4.6c-6-5.52-51.25-47.21-54.64-54.86c-0.83-1.88-0.74-3.67-0.74-3.67c0.25-4.92,5.67-8.2,7.43-9.55
		c90.25-69.49,215.99-46.84,281.36,50.96c22.97,34.37,33.13,72.54,34.88,111.84c-2.11,43.58-13.51,82.41-37.55,117.45
		C914.34,639.28,910.35,638,903.6,631.06z"/>
	<path class="st7" d="M749.29,548.28c3.87-11.15,0.2-15.95-8.57-19.02c-10.77-3.76-20.66-9.53-29.53-16.8
		c-17.99-14.74-27.02-46.97-18.93-68.39c3.76-9.96,12.6-9.37,20.56-7.66c7.29,1.56,14.18,4.99,23.86,8.56
		c-11.61-24.24-12.6-47.23-1.18-69.49c5.75-11.21,10.48-27.26,24.92-26.97c13.35,0.27,17.71,15.87,23.45,26.62
		c12.05,22.58,10.35,45.61-1.87,70.55c10.38-3.2,17.81-5.84,25.43-7.78c16.83-4.29,19.78-1.07,21.66,15.52
		c4.51,40.03-17.72,61.37-50.87,75.42c-8.54,3.62-14.27,7.53-8.94,18.77c9.82-5.86,19.66-10.71,31-12.9
		c17.46-3.38,30.11,4.53,29.99,22.9c-0.15,23.26-11.34,41.24-31.07,53.73c-1.82,1.15-3.68,2.61-5.71,3.03
		c-24.33,5.05-28.18,21.68-26.52,43.27c0.61,7.99,6.64,23.41-8.3,23.11c-12.67-0.26-6.42-14.57-7.62-22.89
		c-0.53-3.71-0.41-7.62,0.04-11.36c1.67-13.87-2.37-22.08-17.09-27.65c-30.45-11.52-45.89-34.86-44.76-68.17
		c0.56-16.56,7.35-21.75,23.99-18.59C726.22,534.54,737.09,541.75,749.29,548.28z M750.92,493.66
		c0.14-22.93-12.85-36.74-36.54-40.27c-7.02-1.05-8.18,1.46-8.77,7.45c-2.43,24.71,12.42,45.1,37.37,51.57
		c6.13,1.59,7.93-0.25,7.94-5.8C750.92,502.29,750.92,497.98,750.92,493.66z M767.09,589.15c0.3,17.55,0.74,18.37,9.02,16.5
		c22.76-5.13,39.65-29.16,37.1-52.07c-0.58-5.23-1.25-7.49-7.5-6.87C785.23,548.72,766.74,568.61,767.09,589.15z M767.44,494.29
		c-0.31,17.91,0.17,19,7.76,17.88c22.34-3.29,41.97-29.94,38.78-52.4c-0.58-4.07-0.65-6.93-6.44-6.58
		C788.56,454.35,767.77,475.27,767.44,494.29z M758.9,448.08c20.05-21.02,22.85-48.63,8.36-71.89c-6.33-10.17-9.67-8.12-15.14,0.51
		C737.88,399.14,739.75,421.88,758.9,448.08z M706.57,545.58c-4.03,29.52,10.86,53.14,36.21,60.2c4.2,1.17,6.49,1.95,8.01-3.62
		c5.81-21.34-0.43-36.95-20.25-47.03C723.45,551.51,715.71,549.16,706.57,545.58z"/>
	<g>
		<path class="st7" d="M348.83,562.85c0.74-22.48-4.65-39.38-12.88-58.16c-17.2-39.24-38.89-76.18-60.52-113.07
			c-7.7-13.12-15.93-12.7-24.2,0.57c-7.73,12.4-15.41,24.93-21.76,38.06c-3.3,6.81-19.14,35.6-21.94,40.74
			c-11.42,20.92-22.61,42.02-27.74,65.63c-10.19,46.82,11.43,89.9,53.36,106.34c16.7,6.55,30.97,5.8,34.43,5.59
			c36.99-2.21,69.74-32.04,78.54-64.52C348.42,575.54,348.65,568.46,348.83,562.85z M330.81,567.83c-0.8,8.17-2.32,15.28-3.94,21.13
			c-9.85,25.78-37.01,43.59-65.2,42.76c-40.11-1.18-72.24-37.91-67.9-77.91c2.88-26.46,15.73-49.37,26.73-72.91l18.2-34.25
			c7.78-12.9,15.11-26.06,24.55-42.47c25.65,48.85,56.64,91.03,67.82,142.2C331.52,552.43,331.62,559.69,330.81,567.83z"/>
		<path class="st7" d="M262.58,290.23c-116.62,0.38-214.16,103.34-214.2,226.12c-0.04,116.84,100.74,217.6,217.46,217.42
			c118-0.18,216.67-100.64,216.1-220.01C481.37,392.4,380.73,289.84,262.58,290.23z M409.06,631.06
			c-12.65-13-25.55-25.75-38.48-38.47c-1.55,4.33-3.18,8.72-4.91,13.17c-0.7,1.79-1.4,3.56-2.1,5.31
			c11.64,11.78,23.42,23.42,35.49,34.75c7.27,6.83,5.16,10.81-1.1,16.64c-37.45,34.93-81.93,51.77-129.79,52.83
			C128.35,714.42,29.49,572.62,80.95,439.99c8.54-22.01,20.79-41.55,35.3-59.96c5.3-6.73,9.1-7,15.19-0.73
			c21.91,22.53,44.01,44.89,66.42,66.92c1.63-2.46,3.27-4.99,4.91-7.58c1.73-2.73,3.39-5.43,4.99-8.09
			c-34.73-35.57-59.94-61.41-65.11-66.39c-0.61-0.59-2.48-2.37-2.62-4.87c-0.24-4.55,5.56-8.11,7.43-9.55
			c90.25-69.49,215.99-46.84,281.36,50.96c22.97,34.37,33.13,72.54,34.88,111.84c-2.11,43.58-13.51,82.41-37.55,117.45
			C419.8,639.28,415.82,638,409.06,631.06z"/>
	</g>
</g>
</svg>
