<?xml version="1.0" encoding="utf-8"?>
<!-- Generator: Adobe Illustrator 24.0.2, SVG Export Plug-In . SVG Version: 6.00 Build 0)  -->
<svg version="1.1" id="Layer_1" xmlns="http://www.w3.org/2000/svg" xmlns:xlink="http://www.w3.org/1999/xlink" x="0px" y="0px"
	 viewBox="0 0 1024 1024" style="enable-background:new 0 0 1024 1024;" xml:space="preserve">
<style type="text/css">
	.st0{fill:#64A2BD;}
	.st1{fill:#DEA350;}
	.st2{fill:#5C976F;}
	.st3{fill:#BB6872;}
	.st4{fill:#925DE6;}
	.st5{fill:#CA4941;}
	.st6{fill:#2D3B7F;}
	.st7{fill:#FFFFFF;}
	.st8{fill:none;stroke:#FFFFFF;stroke-width:18.0104;stroke-linecap:round;stroke-linejoin:round;stroke-miterlimit:10;}
	.st9{fill:none;stroke:#FFFFFF;stroke-width:23.5118;stroke-linecap:round;stroke-linejoin:round;stroke-miterlimit:10;}
	.st10{fill:none;stroke:#FFFFFF;stroke-width:20.1529;stroke-linecap:round;stroke-linejoin:round;stroke-miterlimit:10;}
	.st11{fill:none;stroke:#FFFFFF;stroke-width:22.9223;stroke-linecap:round;stroke-linejoin:round;stroke-miterlimit:10;}
	.st12{fill:none;stroke:#FFFFFF;stroke-width:19.6477;stroke-linecap:round;stroke-linejoin:round;stroke-miterlimit:10;}
	.st13{fill:none;stroke:#FFFFFF;stroke-width:18.4735;stroke-linecap:round;stroke-linejoin:round;stroke-miterlimit:10;}
	.st14{font-family:'KalbeGeometric-SemiBold';}
	.st15{font-size:88.547px;}
	.st16{fill:none;stroke:#FFFFFF;stroke-width:20;stroke-linecap:round;stroke-linejoin:round;stroke-miterlimit:10;}
	.st17{fill:none;stroke:#FFFFFF;stroke-width:10;stroke-miterlimit:10;}
	.st18{fill:none;stroke:#FFFFFF;stroke-width:20;stroke-miterlimit:10;}
	.st19{fill:none;stroke:#FFFFFF;stroke-width:16.6607;stroke-miterlimit:10;}
	.st20{fill:none;stroke:#FFFFFF;stroke-width:20.5133;stroke-linecap:round;stroke-linejoin:round;stroke-miterlimit:10;}
	.st21{fill:none;stroke:#FFFFFF;stroke-width:15;stroke-miterlimit:10;}
	.st22{fill:none;stroke:#FFFFFF;stroke-width:10;stroke-linecap:round;stroke-linejoin:round;stroke-miterlimit:10;}
	.st23{fill:none;stroke:#000000;stroke-width:6.62;stroke-linecap:round;stroke-linejoin:round;stroke-miterlimit:10;}
	.st24{fill:none;stroke:#FFFFFF;stroke-width:22.5062;stroke-linecap:round;stroke-linejoin:round;stroke-miterlimit:10;}
</style>
<path class="st5" d="M857.75,1024H167.13C75.07,1024,0.44,949.37,0.44,857.31V166.69C0.44,74.63,75.07,0,167.13,0h690.62
	c92.06,0,166.69,74.63,166.69,166.69v690.62C1024.44,949.37,949.81,1024,857.75,1024z"/>
<path class="st7" d="M565.47,608.88c0.99,112.04-87.5,209.74-197.7,218.29c-115.94,8.99-217.14-71.22-234.39-184.85
	c-9.44-62.2,8.93-118.04,36.72-171.94c49.16-95.35,105.35-186.54,164.37-276.04c11.72-17.77,14.05-17.86,26.06,0.19
	c56.65,85.2,111.94,171.26,159.41,262.03C554.39,522.43,565.03,559.13,565.47,608.88z M347.59,203.02
	c-4.04,5.55-6.31,8.35-8.26,11.37c-53.26,82.39-104.44,166.05-150.58,252.66c-25.42,47.72-44.47,97.25-41.94,153.14
	c3.79,83.85,62.28,158.93,145.48,184.38c78.3,23.94,169.65-7.06,217.72-74.4c50.65-70.95,51.4-145.83,16.91-223.41
	c-21.83-49.1-48.83-95.38-76.33-141.4C418.11,311.03,384.1,257.69,347.59,203.02z"/>
<text transform="matrix(1 0 0 1 226.1201 581.4053)"><tspan x="0" y="0" class="st7 st14 st15">MCT</tspan><tspan x="0" y="106.26" class="st7 st14 st15">100%</tspan></text>
<g>
	<polygon class="st16" points="799.81,443.88 756.21,368.36 669,368.36 625.4,443.88 669,519.41 756.21,519.41 	"/>
	<polygon class="st16" points="943.96,660.39 900.36,584.86 813.16,584.86 769.55,660.39 813.16,735.91 900.36,735.91 	"/>
	<line class="st16" x1="756.21" y1="519.41" x2="813.16" y2="584.86"/>
</g>
</svg>
