<?xml version="1.0" encoding="utf-8"?>
<!-- Generator: Adobe Illustrator 24.0.2, SVG Export Plug-In . SVG Version: 6.00 Build 0)  -->
<svg version="1.1" id="Layer_1" xmlns="http://www.w3.org/2000/svg" xmlns:xlink="http://www.w3.org/1999/xlink" x="0px" y="0px"
	 viewBox="0 0 1024 1024" style="enable-background:new 0 0 1024 1024;" xml:space="preserve">
<style type="text/css">
	.st0{fill:#64A2BD;}
	.st1{fill:#DEA350;}
	.st2{fill:#5C976F;}
	.st3{fill:#BB6872;}
	.st4{fill:#925DE6;}
	.st5{fill:#CA4941;}
	.st6{fill:#2D3B7F;}
	.st7{fill:#FFFFFF;}
	.st8{fill:none;stroke:#FFFFFF;stroke-width:18.0104;stroke-linecap:round;stroke-linejoin:round;stroke-miterlimit:10;}
	.st9{fill:none;stroke:#FFFFFF;stroke-width:23.5118;stroke-linecap:round;stroke-linejoin:round;stroke-miterlimit:10;}
	.st10{fill:none;stroke:#FFFFFF;stroke-width:20.1529;stroke-linecap:round;stroke-linejoin:round;stroke-miterlimit:10;}
	.st11{fill:none;stroke:#FFFFFF;stroke-width:22.9223;stroke-linecap:round;stroke-linejoin:round;stroke-miterlimit:10;}
	.st12{fill:none;stroke:#FFFFFF;stroke-width:19.6477;stroke-linecap:round;stroke-linejoin:round;stroke-miterlimit:10;}
	.st13{fill:none;stroke:#FFFFFF;stroke-width:18.4735;stroke-linecap:round;stroke-linejoin:round;stroke-miterlimit:10;}
	.st14{fill:none;stroke:#FFFFFF;stroke-width:20;stroke-linecap:round;stroke-linejoin:round;stroke-miterlimit:10;}
	.st15{fill:none;stroke:#FFFFFF;stroke-width:10;stroke-miterlimit:10;}
	.st16{fill:none;stroke:#FFFFFF;stroke-width:20;stroke-miterlimit:10;}
	.st17{fill:none;stroke:#FFFFFF;stroke-width:16.6607;stroke-miterlimit:10;}
	.st18{fill:none;stroke:#FFFFFF;stroke-width:20.5133;stroke-linecap:round;stroke-linejoin:round;stroke-miterlimit:10;}
	.st19{fill:none;stroke:#FFFFFF;stroke-width:15;stroke-miterlimit:10;}
	.st20{fill:none;stroke:#FFFFFF;stroke-width:10;stroke-linecap:round;stroke-linejoin:round;stroke-miterlimit:10;}
	.st21{fill:none;stroke:#000000;stroke-width:6.62;stroke-linecap:round;stroke-linejoin:round;stroke-miterlimit:10;}
	.st22{fill:none;stroke:#FFFFFF;stroke-width:22.5062;stroke-linecap:round;stroke-linejoin:round;stroke-miterlimit:10;}
</style>
<path class="st5" d="M863.59,1028.92H172.98c-92.06,0-166.69-74.63-166.69-166.69V171.62C6.28,79.55,80.92,4.92,172.98,4.92h690.62
	c92.06,0,166.69,74.63,166.69,166.69v690.62C1030.28,954.29,955.65,1028.92,863.59,1028.92z"/>
<path class="st7" d="M161.27,522.67c-10.24-149.26,112.61-285.53,267.2-296.38c147.35-10.35,283.07,113.37,293.92,267.94
	c11.07,157.68-108.14,294.33-266.22,303.61C290.96,807.54,164.18,670.36,161.27,522.67z M707.34,512.34
	c1.39-142.87-120.24-268.7-261.22-270.23c-146.35-1.58-267.61,119.64-269.21,269.11c-1.56,146.01,117.43,269.8,260.82,271.32
	C586.21,784.12,705.86,664.22,707.34,512.34z"/>
<path class="st7" d="M512.07,479.61c9.4,0,18.81-0.2,28.2,0.08c5.31,0.16,12.02-2.1,14.61,5.1c2.24,6.22-2.09,10.68-5.61,15.05
	c-22.82,28.27-45.71,56.48-68.53,84.74c-27.95,34.6-55.74,69.32-83.91,103.73c-4.25,5.2-7.33,15.45-16.98,10.37
	c-9.61-5.07-2.82-13.83-1.31-20.22c9.62-40.81,19.38-81.62,30.57-122.03c3.68-13.29-0.91-15.07-11.88-14.92
	c-18.79,0.27-37.6,0.03-56.4-0.14c-5.49-0.05-11.87,1.17-14.83-5.29c-2.58-5.63,1.87-9.37,4.92-13.19
	c50.85-63.6,101.72-127.19,152.69-190.7c3.37-4.2,6.61-10.75,13.24-8.23c8,3.03,5.31,10.51,3.94,16.36
	c-9.26,39.61-18.15,79.34-28.54,118.66c-4.54,17.19-0.12,23.07,17.28,20.8C496.92,478.8,504.55,479.61,512.07,479.61z
	 M479.18,367.44c-1.44-0.5-2.88-1-4.32-1.49c-41.28,52.08-82.55,104.16-126.87,160.08c22.26,0,39.01-0.05,55.76,0.01
	c28.98,0.1,29.07,0.14,21.87,28.26c-8.57,33.45-17.3,66.87-25.95,100.3c1.18,0.54,2.36,1.09,3.53,1.63
	c42.32-52.8,84.65-105.59,129.13-161.08c-23.76,0-43.67-0.84-63.47,0.25c-17.14,0.95-20.59-5.29-16.35-21.06
	C462.04,438.88,470.36,403.1,479.18,367.44z"/>
<g>
	<path class="st7" d="M825.03,389.98l-33.81,35.14c-2.95,3.06-2.85,7.93,0.21,10.88c3.06,2.95,7.93,2.85,10.88-0.21l20.46-21.26
		l-0.55,94.46c0,0.02,0,0.03,0,0.05c0,4.23,3.42,7.67,7.65,7.69c4.25,0.03,7.72-3.4,7.74-7.65l0.55-94.5l19.96,21.16
		c2.92,3.09,7.79,3.23,10.88,0.32c1.6-1.51,2.41-3.55,2.41-5.6c0-1.89-0.7-3.79-2.1-5.28l-33.15-35.14
		c-1.44-1.53-3.45-2.4-5.56-2.41C828.51,387.61,826.49,388.46,825.03,389.98z"/>
	<path class="st7" d="M829.93,748.35L829.93,748.35c-4.25,0-7.69-3.44-7.69-7.69v-235.5h15.37v235.5
		C837.62,744.91,834.17,748.35,829.93,748.35z"/>
</g>
</svg>
