<?xml version="1.0" encoding="utf-8"?>
<!-- Generator: Adobe Illustrator 24.0.2, SVG Export Plug-In . SVG Version: 6.00 Build 0)  -->
<svg version="1.1" id="Layer_1" xmlns="http://www.w3.org/2000/svg" xmlns:xlink="http://www.w3.org/1999/xlink" x="0px" y="0px"
	 viewBox="0 0 1024 1024" style="enable-background:new 0 0 1024 1024;" xml:space="preserve">
<style type="text/css">
	.st0{fill:#64A2BD;}
	.st1{fill:#DEA350;}
	.st2{fill:#5C976F;}
	.st3{fill:#BB6872;}
	.st4{fill:#925DE6;}
	.st5{fill:#CA4941;}
	.st6{fill:#2D3B7F;}
	.st7{fill:#FFFFFF;}
	.st8{fill:none;stroke:#FFFFFF;stroke-width:18.0104;stroke-linecap:round;stroke-linejoin:round;stroke-miterlimit:10;}
	.st9{fill:none;stroke:#FFFFFF;stroke-width:23.5118;stroke-linecap:round;stroke-linejoin:round;stroke-miterlimit:10;}
	.st10{fill:none;stroke:#FFFFFF;stroke-width:20.1529;stroke-linecap:round;stroke-linejoin:round;stroke-miterlimit:10;}
	.st11{fill:none;stroke:#FFFFFF;stroke-width:22.9223;stroke-linecap:round;stroke-linejoin:round;stroke-miterlimit:10;}
	.st12{fill:none;stroke:#FFFFFF;stroke-width:19.6477;stroke-linecap:round;stroke-linejoin:round;stroke-miterlimit:10;}
	.st13{fill:none;stroke:#FFFFFF;stroke-width:18.4735;stroke-linecap:round;stroke-linejoin:round;stroke-miterlimit:10;}
	.st14{fill:none;stroke:#FFFFFF;stroke-width:20;stroke-linecap:round;stroke-linejoin:round;stroke-miterlimit:10;}
	.st15{fill:none;stroke:#FFFFFF;stroke-width:10;stroke-miterlimit:10;}
	.st16{fill:none;stroke:#FFFFFF;stroke-width:20;stroke-miterlimit:10;}
	.st17{fill:none;stroke:#FFFFFF;stroke-width:16.6607;stroke-miterlimit:10;}
	.st18{fill:none;stroke:#FFFFFF;stroke-width:20.5133;stroke-linecap:round;stroke-linejoin:round;stroke-miterlimit:10;}
	.st19{fill:none;stroke:#FFFFFF;stroke-width:15;stroke-miterlimit:10;}
	.st20{fill:none;stroke:#FFFFFF;stroke-width:10;stroke-linecap:round;stroke-linejoin:round;stroke-miterlimit:10;}
	.st21{fill:none;stroke:#000000;stroke-width:6.62;stroke-linecap:round;stroke-linejoin:round;stroke-miterlimit:10;}
	.st22{font-family:'KalbeGeometric-SemiBold';}
	.st23{font-size:89.8211px;}
	.st24{font-size:48.7276px;}
	.st25{fill:none;stroke:#FFFFFF;stroke-width:22.5062;stroke-linecap:round;stroke-linejoin:round;stroke-miterlimit:10;}
</style>
<path class="st3" d="M856.87,1024H166.25C74.19,1024-0.44,949.37-0.44,857.31V166.69C-0.44,74.63,74.19,0,166.25,0h690.62
	c92.06,0,166.69,74.63,166.69,166.69v690.62C1023.56,949.37,948.93,1024,856.87,1024z"/>
<g>
	<path class="st7" d="M742.66,638.08c-0.12,5.43-3,8.19-5.64,11.1c-18.81,20.74-37.88,41.25-56.28,62.34
		c-7.01,8.04-12.42,7.78-19.12,0.2c-8.46-9.56-17.36-18.72-25.97-28.15c-3.71-4.07-5.29-8.54-0.27-12.75
		c4.89-4.1,8.01,0.06,11.29,2.89c1.11,0.96,2.06,2.1,3.12,3.13c21.67,21.17,21.72,21.22,42.88-1.51
		c12.04-12.94,23.87-26.09,35.85-39.09c2.8-3.04,6.22-5.38,10.35-2.91C740.72,634.45,741.76,636.92,742.66,638.08z"/>
	<circle class="st17" cx="692.66" cy="675.33" r="128.85"/>
	<path class="st18" d="M671.39,510.68c-23.33-97.12-72.33-184.12-138.33-262.12c-2-2-5-4-7-6c-17-20-34-37-53-54c-1-1-4,0-5,1
		c-5,7-11,11-17,16c-1,1-2,3-3,4c-14,12-25,24-37,37c-2,2-5,4-7,6c-47,52-85,105-114,168c-1,2,0,3-1,5c-19,42-30,87-34,133
		c-2,27-2,53,4,80c0,2,0,3,0,5c11,60,41,111,93,146c1,1,2,2,3,3c65,43,144,43,210.12,11.88"/>
	<text transform="matrix(1 0 0 1 378.2516 496.6396)" class="st7 st22 st23">353</text>
	<text transform="matrix(1 0 0 1 343.776 560.3896)" class="st7 st22 st24">mOsm/L</text>
</g>
</svg>
