<svg id="Layer_1" data-name="Layer 1" xmlns="http://www.w3.org/2000/svg" viewBox="0 0 1024 1024"><defs><style>.cls-1{fill:#925de6;}.cls-2{fill:#fff;}.cls-3{fill:none;stroke:#fff;stroke-miterlimit:10;stroke-width:10px;}</style></defs><title>Website Icon</title><rect class="cls-1" x="0.22" width="1024" height="1024" rx="166.69"/><path class="cls-2" d="M652.93,326c-.08,39.06-14.69,72.27-42.75,98.87-8.83,8.37-8.75,13.72-2.73,23,27.29,42.12,54.1,84.55,80.79,127.06,5,7.94,8.93,10.23,18.75,5.63,51.87-24.32,101.47-18.29,143.74,19.77,43.42,39.08,58.58,89.06,40,145.76-18.21,55.63-58.32,86.76-116.06,94.13-48.27,6.16-101.39-22.4-125.57-67.32-28.33-52.62-25.32-104.21,9.6-152.83,20.54-28.61,21.24-28,2-58.19-22.4-35.05-45-70-66.8-105.42-5.67-9.19-10.13-10.25-20.15-5.76-36.83,16.49-74.67,17.47-111.09-.55-13-6.42-17.18-1.3-23.26,7.79-27.15,40.64-54.15,81.4-82.42,121.26-9.22,13-9.08,20.64,1.83,33.22,58.92,68,43.58,165.18-32,210.13C265.25,859.15,188.49,840.19,148,778.34c-40-61.1-24.26-144.38,35.5-186.82,41.31-29.34,85.77-33.55,131.18-12,15.9,7.53,22,3.79,30.55-9.62,26-40.6,53.23-80.4,80.76-120,7.17-10.31,7.59-16-1.92-26C353.13,349.31,376.15,231.36,468.4,193,557.15,156,653.36,225.37,652.93,326ZM143.27,702.36c-.72,67.1,51.84,122.07,116.76,122.09,63.6,0,118.06-55.16,118.09-119.66,0-65.85-52.06-120.56-115.83-121.65C196.34,582,144,634.45,143.27,702.36Zm504.27,1c0,66.52,50.59,119.78,114.24,120.28,65.46.52,119.69-53.63,120-119.8.29-65.34-53.46-120.7-117.14-120.63C700.14,583.29,647.53,637.28,647.54,703.38ZM517.93,446.06c64.43.61,119-55.76,119.17-123.08.17-65.39-56.31-123.86-119.63-123.87-62.64,0-118.63,57.57-118.89,122.24C398.31,390.55,450.82,445.43,517.93,446.06Z"/><path class="cls-2" d="M444.48,279.4h17.86l32.56,47.79V279.3h14.91v73.52h-14.6L459.4,300.31v52.51H444.48Z"/><path class="cls-2" d="M522.42,324c0-17.43,12.39-30.46,30.35-30.46a25.4,25.4,0,0,1,19.11,8v-6.31h14.5v57.56h-13v-7.88a25.78,25.78,0,0,1-20.59,9.56C534.81,354.5,522.42,341.48,522.42,324Zm49.46,0c0-10.19-6.93-17.64-17.53-17.64C544.16,306.4,537,313.64,537,324s7.14,17.65,17.33,17.65C565,341.69,571.88,334.23,571.88,324Z"/><path class="cls-2" d="M225.12,674.83H240V705l29.62-30.14H289.5l-35.92,36.65,39.07,36.87H272.17L240,718v30.35H225.12Z"/><path class="cls-2" d="M748.66,674.83h37.5c14.07,0,25.31,9.35,25.31,23.32,0,14.17-11.34,23.52-25.31,23.52H763.58v26.68H748.66Zm14.92,12.81v21.22h22.58c6.4,0,10.39-4,10.39-10.71s-4-10.51-10.39-10.51Z"/><circle class="cls-3" cx="261.29" cy="702.52" r="137.29"/><circle class="cls-3" cx="764.66" cy="702.52" r="137.29"/><circle class="cls-3" cx="517.84" cy="322.59" r="137.29"/><rect class="cls-2" x="378.2" y="424.69" width="30.1" height="181.55" transform="translate(374.15 -132.6) rotate(35.65)"/><rect class="cls-2" x="625.13" y="424.69" width="30.1" height="181.55" transform="translate(1458.51 592.11) rotate(146.51)"/></svg>