<svg id="Layer_1" data-name="Layer 1" xmlns="http://www.w3.org/2000/svg" viewBox="0 0 1024 1024"><defs><style>.cls-1{fill:#925de6;}.cls-2{fill:#fff;}</style></defs><title>Website Icon</title><rect class="cls-1" x="0.22" width="1024" height="1024" rx="166.69"/><path class="cls-2" d="M217.19,365.25c0-18.33.43-36.67-.15-55-.38-11.78,4.55-17.68,16-18.92,101.26-10.89,188.73-53.6,267.44-116.29,9.25-7.36,17-8,26.85-.16,77.54,61.92,163.92,104.14,263.48,116.37,9.93,1.21,16.6,4.91,16.58,16.45-.11,108.7-8.52,216.13-53.18,317.2C708,729.62,629.65,802.73,527.31,851.74c-12.7,6.08-23.16,1.79-34.16-3.45C354.24,782,269.24,673.23,236.48,523.2,225.12,471.15,220.81,418.29,217.19,365.25Zm569,11.4c0-15.79-.75-31.63.23-47.36.79-12.63-3.49-17.29-16.31-19.25-89.46-13.66-168.79-51.21-240.19-105.73-12.66-9.67-20.48-9-32.3.14C425.32,260.54,344,296.34,253.39,310.09c-12.79,1.94-14.81,7.24-14.89,18.3-.42,60.21,4.08,120,16,179,29.41,145.45,108,253.63,243.35,318.41,11.23,5.38,20.35,5.52,31.82-.08C617.29,782.93,683.85,719,727.43,631.59,767.45,551.33,780.4,464.9,786.15,376.65Z"/><path class="cls-2" d="M419.35,415.77h30.4V345.91l-16.63,8.9-9.91-17L457.3,318.7h16.63v97.07h30.4v20.49h-85Z"/><path class="cls-2" d="M520.11,415.77h30.4V345.91l-16.63,8.9-9.91-17,34.1-19.15h16.62v97.07h30.4v20.49h-85Z"/><path class="cls-2" d="M501.47,515.53H479.64V494h21.83V472.2H523V494H544.8v21.5H523v21.83h-21.5Z"/><path class="cls-2" d="M467.38,633.09c0-36.45,14.27-65.16,48.7-65.16,21.16,0,35.44,10.24,42.15,28.88l-19.31,7.9c-3.86-10.92-11.59-17.3-22.84-17.3-16.46,0-25.69,13.1-26.7,36.27,6.21-8.23,16.79-12.93,29.56-12.93,21.32,0,39.8,13.94,39.8,39.13,0,24.69-17.8,41-43.83,41C487.2,690.86,467.38,674.57,467.38,633.09Zm67.51,17.46c0-13.43-8.56-21.66-20.32-21.66-11.92,0-21,8.23-21,21.66,0,13.27,9.07,21.5,21,21.5C526.33,672.05,534.89,663.82,534.89,650.55Z"/></svg>