<?xml version="1.0" encoding="utf-8"?>
<!-- Generator: Adobe Illustrator 24.0.2, SVG Export Plug-In . SVG Version: 6.00 Build 0)  -->
<svg version="1.1" id="Layer_1" xmlns="http://www.w3.org/2000/svg" xmlns:xlink="http://www.w3.org/1999/xlink" x="0px" y="0px"
	 viewBox="0 0 1024 1024" style="enable-background:new 0 0 1024 1024;" xml:space="preserve">
<style type="text/css">
	.st0{fill:#64A2BD;}
	.st1{fill:#DEA350;}
	.st2{fill:#5C976F;}
	.st3{fill:#BB6872;}
	.st4{fill:#925DE6;}
	.st5{fill:#CA4941;}
	.st6{fill:#2D3B7F;}
	.st7{fill:#FFFFFF;}
	.st8{fill:none;stroke:#FFFFFF;stroke-width:18.0104;stroke-linecap:round;stroke-linejoin:round;stroke-miterlimit:10;}
	.st9{fill:none;stroke:#FFFFFF;stroke-width:23.5118;stroke-linecap:round;stroke-linejoin:round;stroke-miterlimit:10;}
	.st10{fill:none;stroke:#FFFFFF;stroke-width:20.1529;stroke-linecap:round;stroke-linejoin:round;stroke-miterlimit:10;}
	.st11{fill:none;stroke:#FFFFFF;stroke-width:22.9223;stroke-linecap:round;stroke-linejoin:round;stroke-miterlimit:10;}
	.st12{fill:none;stroke:#FFFFFF;stroke-width:19.6477;stroke-linecap:round;stroke-linejoin:round;stroke-miterlimit:10;}
	.st13{fill:none;stroke:#FFFFFF;stroke-width:18.4735;stroke-linecap:round;stroke-linejoin:round;stroke-miterlimit:10;}
	.st14{fill:none;stroke:#FFFFFF;stroke-width:20;stroke-linecap:round;stroke-linejoin:round;stroke-miterlimit:10;}
	.st15{fill:none;stroke:#FFFFFF;stroke-width:10;stroke-miterlimit:10;}
	.st16{fill:none;stroke:#FFFFFF;stroke-width:20;stroke-miterlimit:10;}
	.st17{fill:none;stroke:#FFFFFF;stroke-width:16.6607;stroke-miterlimit:10;}
	.st18{fill:none;stroke:#FFFFFF;stroke-width:20.5133;stroke-linecap:round;stroke-linejoin:round;stroke-miterlimit:10;}
	.st19{fill:none;stroke:#FFFFFF;stroke-width:15;stroke-miterlimit:10;}
	.st20{fill:none;stroke:#FFFFFF;stroke-width:10;stroke-linecap:round;stroke-linejoin:round;stroke-miterlimit:10;}
	.st21{fill:none;stroke:#000000;stroke-width:6.62;stroke-linecap:round;stroke-linejoin:round;stroke-miterlimit:10;}
	.st22{fill:none;stroke:#FFFFFF;stroke-width:22.5062;stroke-linecap:round;stroke-linejoin:round;stroke-miterlimit:10;}
</style>
<path class="st6" d="M857.31,1023.63H166.69C74.63,1023.63,0,949,0,856.94V166.32C0,74.26,74.63-0.37,166.69-0.37h690.62
	c92.06,0,166.69,74.63,166.69,166.69v690.62C1024,949,949.37,1023.63,857.31,1023.63z"/>
<path class="st7" d="M568.7,652.99c0.21-2.03,0.43-4.03,0.65-6.02c0.17-1.52-1.12-2.79-2.64-2.59c-12.18,1.61-29.65,3.41-50.64,3.82
	c-58.25,1.14-100.35-0.38-172.68-29.44c-16.96-6.82-33.94-13.7-50.45-21.52c-19.03-9.02-22.18-15.72-20.78-36.28
	c1.57-23.09,1.17-46.3,5.51-69.2c7.66-40.42,27.63-75.35,48.91-109.55c21.25-34.14,43.73-67.51,65.31-101.46
	c5.27-8.28,11.99-14.1,20.83-17.9c26.54-11.41,53.85-20.6,81.65-28.4c8.38-2.35,14.43-0.27,19.73,7.37
	c6.98,10.06,14.53,19.71,22.99,28.56c6.87,7.17,8.69,14.23,2.04,21.29c-4.98,5.28-5.16,10.55-1.25,16.35
	c5.11,7.58,1.73,12.15-5.64,14.82c-6.1,2.21-12.48,3.65-18.57,5.9c-6.71,2.48-10.21,0.85-12.8-6.23
	c-4.51-12.34-11.3-13.29-20.51-3.81c-12.81,13.17-21.01,13.93-35.86,3.32c-10.89-7.79-15.36-5.71-20.36,6.66
	c-8.05,19.93-17.14,39.39-24,59.85c-7,20.86-8.03,42.14-7.8,63.75c0.22,20.36,0.76,40.78-13.27,58.03c-3.13,3.85-2.53,8.71,1.9,11.8
	c4.78,3.33,9.44,2.39,12.86-2.29c6.73-9.21,15.13-17.13,25.34-22.23c31.27-15.61,62.63-15.71,93.52,0.88
	c7.16,3.85,12.22,4.02,18.28-2.02c36.98-36.8,86.29-42.74,131.61-16.24c0.43,0.25,1.79,2.01,4.15,2.57c2.27,0.53,4.37-0.2,7.03-1.14
	c1.77-0.62,3.19-1.12,4.78-2.31c1.07-0.81,3.77-2.83,4-5.26c0.28-3-3.26-5.78-5.82-7.38c-30.63-18.99-63.42-26.94-99.08-18.34
	c-19.22,4.64-36.9,12.87-51.6,26.34c-4.68,4.29-8.53,4.37-14.08,2.08c-31.57-13.01-63.24-13.6-94.64,0.62
	c-5.39,2.44-6.66,1.73-6.99-4.42c-2.34-43.08,5.34-84.03,24.31-122.9c3.25-6.66,6.38-10.13,13.59-5.65
	c0.67,0.42,1.56,0.48,2.28,0.85c15.67,8.04,30.85-9.38,48.69,1.5c15.78,9.63,32.08-6.19,47.74-11.92
	c10.54-3.86,14.59-12.82,12.05-23.71c-1.37-5.89-1.34-10.95,1.58-16.33c5.96-10.98,3.66-21.27-3.85-30.61
	c-10.95-13.62-22.19-27-33.09-40.65c-6.57-8.23-15.03-11.13-24.92-8.8c-36.1,8.5-71.05,20.35-104.33,36.85
	c-6.73,3.34-11.45,8.98-15.49,15.2c-25.87,39.88-52.2,79.48-77.48,119.72c-28.57,45.48-47.69,94.24-46.81,145.27
	c-0.96,14.74-1.19,25.74-2.51,36.61c-1.5,12.38,2.39,22.27,11.3,30.67c6.55,6.18,13.44,11.96,21.67,15.62
	c104.8,46.6,169.31,52.14,169.31,52.14c43.74,2.23,99.16-3.33,112.31-4.65"/>
<g>
	<path class="st16" d="M926.39,656.32c0,90.82-73.63,164.44-164.44,164.44c-40.29,0-77.19-14.5-105.79-38.55
		c-35.85-30.17-58.65-75.36-58.65-125.89c0-90.81,73.62-164.43,164.44-164.43c23.63,0,46.1,4.99,66.41,13.97
		C886.09,531.38,926.39,589.14,926.39,656.32z"/>
	<path class="st16" d="M829.15,482.76c0,7.76-0.29,15.46-0.79,23.1c-20.31-8.98-42.78-13.97-66.41-13.97
		c-90.82,0-164.44,73.62-164.44,164.43c0,50.53,22.8,95.72,58.65,125.89c-50.79,29.34-109.73,46.13-172.6,46.13
		c-190.86,0-345.58-154.72-345.58-345.58c0-190.86,154.72-345.59,345.58-345.59C674.42,137.17,829.15,291.9,829.15,482.76z"/>
</g>
<path class="st7" d="M754.18,574.64L703.79,627c-4.39,4.56-4.25,11.82,0.31,16.22c4.56,4.39,11.82,4.25,16.22-0.31l30.49-31.69
	l-0.83,140.76c0,0.02,0,0.05,0,0.07c0,6.3,5.09,11.43,11.4,11.47c6.33,0.04,11.5-5.07,11.54-11.4l0.83-140.82l29.75,31.54
	c4.35,4.61,11.6,4.82,16.21,0.47c2.39-2.26,3.6-5.3,3.6-8.34c0-2.82-1.04-5.65-3.13-7.87l-49.4-52.36c-2.15-2.28-5.15-3.58-8.29-3.6
	C759.36,571.11,756.35,572.38,754.18,574.64z"/>
</svg>
