<?xml version="1.0" encoding="utf-8"?>
<!-- Generator: Adobe Illustrator 24.0.2, SVG Export Plug-In . SVG Version: 6.00 Build 0)  -->
<svg version="1.1" id="Layer_1" xmlns="http://www.w3.org/2000/svg" xmlns:xlink="http://www.w3.org/1999/xlink" x="0px" y="0px"
	 viewBox="0 0 1024 1024" style="enable-background:new 0 0 1024 1024;" xml:space="preserve">
<style type="text/css">
	.st0{fill:#64A2BD;}
	.st1{fill:#DEA350;}
	.st2{fill:#5C976F;}
	.st3{fill:#BB6872;}
	.st4{fill:#925DE6;}
	.st5{fill:#CA4941;}
	.st6{fill:#2D3B7F;}
	.st7{fill:#FFFFFF;}
	.st8{fill:none;stroke:#FFFFFF;stroke-width:18.0104;stroke-linecap:round;stroke-linejoin:round;stroke-miterlimit:10;}
	.st9{fill:none;stroke:#FFFFFF;stroke-width:23.5118;stroke-linecap:round;stroke-linejoin:round;stroke-miterlimit:10;}
	.st10{fill:none;stroke:#FFFFFF;stroke-width:20.1529;stroke-linecap:round;stroke-linejoin:round;stroke-miterlimit:10;}
	.st11{fill:none;stroke:#FFFFFF;stroke-width:22.9223;stroke-linecap:round;stroke-linejoin:round;stroke-miterlimit:10;}
	.st12{fill:none;stroke:#FFFFFF;stroke-width:19.6477;stroke-linecap:round;stroke-linejoin:round;stroke-miterlimit:10;}
	.st13{fill:none;stroke:#FFFFFF;stroke-width:18.4735;stroke-linecap:round;stroke-linejoin:round;stroke-miterlimit:10;}
	.st14{fill:none;stroke:#FFFFFF;stroke-width:20;stroke-linecap:round;stroke-linejoin:round;stroke-miterlimit:10;}
	.st15{fill:none;stroke:#FFFFFF;stroke-width:10;stroke-miterlimit:10;}
	.st16{fill:none;stroke:#FFFFFF;stroke-width:20;stroke-miterlimit:10;}
	.st17{fill:none;stroke:#FFFFFF;stroke-width:16.6607;stroke-miterlimit:10;}
	.st18{fill:none;stroke:#FFFFFF;stroke-width:20.5133;stroke-linecap:round;stroke-linejoin:round;stroke-miterlimit:10;}
	.st19{fill:none;stroke:#FFFFFF;stroke-width:15;stroke-miterlimit:10;}
	.st20{fill:none;stroke:#FFFFFF;stroke-width:10;stroke-linecap:round;stroke-linejoin:round;stroke-miterlimit:10;}
	.st21{fill:none;stroke:#000000;stroke-width:6.62;stroke-linecap:round;stroke-linejoin:round;stroke-miterlimit:10;}
	.st22{fill:none;stroke:#FFFFFF;stroke-width:22.5062;stroke-linecap:round;stroke-linejoin:round;stroke-miterlimit:10;}
</style>
<path class="st6" d="M857.31,1024H166.69C74.63,1024,0,949.37,0,857.31V166.69C0,74.63,74.63,0,166.69,0h690.62
	C949.37,0,1024,74.63,1024,166.69v690.62C1024,949.37,949.37,1024,857.31,1024z"/>
<path class="st7" d="M748.02,493.77c0.65,16.67-1.44,37.35-7.45,57.17c-3.68,12.14-1.98,17.14,10.7,22.24
	c85.98,34.56,103.65,155.06,31.89,213.53c-41.97,34.2-96.42,37.16-141.5,7.7c-44.47-29.05-64.99-83.74-50.96-135.81
	c14.62-54.27,60.35-92.6,114.98-94.29c12.86-0.4,16.49-5.16,19.04-16.2c24.58-106.55-22.98-220.49-117.85-281.34
	c-93.59-60.02-215.52-50.97-299.42,21.69c-10.18,8.81-12.96,14.49-1.45,24.8c21.62,19.37,41.99,40.14,62.61,60.59
	c4.63,4.59,14.5,8.71,5.64,17.43c-8.5,8.36-13.3-1.04-18.01-5.45c-21.89-20.55-43.69-41.25-64.75-62.64
	c-7.21-7.32-10.74-7.8-17.72,0.46c-68.22,80.8-79.95,199.53-28.29,292.01c63.83,114.27,189.94,162.58,313.68,120.34
	c5.76-1.97,13.38-8.35,17.26,2.29c4.03,11.06-5.91,11.89-12.28,14.22c-43.93,16.06-89.05,19.89-135.25,12.93
	C231.51,735.7,129.92,499.15,243.85,335.15C298,257.2,371.5,213.2,466.53,209.58c110.98-4.22,216.1,67.33,259.97,173.69
	C740.55,417.35,748.04,452.71,748.02,493.77z M811.93,692.06c0.19-59.97-47.33-111.45-102.97-111.53
	c-56.79-0.09-105.28,49.86-105.88,109.07c-0.61,60.06,44.88,107.51,103.57,108.04C762.98,798.15,811.74,749.25,811.93,692.06z"/>
<path class="st7" d="M469.09,568.55c3.38-27.47,3.4-27.51-17.89-35.76c-7.79-3.02-15.94-5.22-23.47-8.77
	c-23.01-10.84-35.46-39.42-28.37-63.64c3.08-10.5,11.95-5.95,18.6-7.51c1.99-5.15-3-6.67-5.24-9.21
	c-16.25-18.41-15.96-40.56-14.34-62.87c0.48-6.67,5.65-8.23,12.01-7.44c14.7,1.82,28.77,5.9,44.61,12.38
	c-2.92-7.99-5.52-14.03-7.35-20.29c-9.64-32.96,3.8-59.72,23.44-84.53c5.91-7.46,11.64-4.6,16.99,1.77
	c24.62,29.3,35.75,61.05,17.13,99.91c15-1.75,27.57-7.29,40.96-8.85c11.68-1.36,14.59,3,14.89,13.65
	c0.73,25.37-6.3,47.52-25.08,64.91c1.2,1.49,1.77,2.77,2.27,2.74c24.08-1.42,24.87-0.61,22.71,23.62
	c-2.43,27.24-15.25,43.15-41.14,51.08c-4.71,1.44-9.41,2.92-14.09,4.44c-20.74,6.77-20.73,6.77-17.29,32.39
	c14-14.71,30.66-20.52,48.67-22.98c19.76-2.7,22.06-0.67,22.23,19.59c0.35,41.56-19.73,69.27-60.15,79.91
	c-11.33,2.98-13.72,8.05-13.17,18.27c0.68,12.77,0.18,25.6,0.1,38.4c-0.03,5.46-1.89,10.33-8.11,10.12
	c-5.98-0.21-7.88-4.82-7.83-10.45c0.12-14.28-0.18-28.57,0.21-42.84c0.19-7.05-2.24-10.02-9.34-12.18
	c-47.19-14.31-65.05-39.47-63.48-87.99c0.45-13.82,4.76-17.11,18.64-13.94C434.96,546.76,453.32,551.95,469.09,568.55z
	 M486.54,612.59c3.33,4.15-7.03,17.33,7.77,15.39c28.18-3.68,51.37-33.11,50.09-61.01c-0.19-4.18,0.31-7.41-5.98-7.31
	C510.68,560.12,487.27,583.22,486.54,612.59z M470.43,612.96c2.18-34.63-28.81-48.91-50.58-53.65c-7.23-1.58-6.48,3.62-6.72,8.05
	c-1.29,23.82,14.36,47.32,38.48,57.71C469.17,632.63,470.67,631.67,470.43,612.96z M486.76,441.77c0,3.92-0.06,7.84,0.02,11.75
	c0.08,3.98,1.12,6.2,6.17,5.47c29.66-4.29,53.03-31.83,52.22-61.92c-0.1-3.85,1-7.73-5.53-7.63
	C512.5,389.86,487.52,414.5,486.76,441.77z M499.02,344.6c-0.27-14.14-5.38-26.57-12.79-38.45c-4.81-7.71-7.97-7.81-13.45-0.32
	c-17.71,24.21-16.54,60.63,2.85,83.61c4.19,4.97,6.1,3.06,8.55-0.87C492.6,375.1,498.39,360.73,499.02,344.6z M470.16,441.15
	c0.19-26.69-14.5-42.18-45.8-50.2c-9.23-2.37-10.82,0.44-10.84,8.83c-0.07,28.06,22.13,53.98,50.64,58.61
	c3.74,0.61,5.76-0.33,5.95-4.02C470.33,449.97,470.16,445.56,470.16,441.15z M486.18,507.4c1.82,4.35-3.49,13.14,6.2,14.56
	c15.85,2.33,43.52-15.21,49.95-31.33c2.5-6.28,6.74-14.09,3.14-19.62c-4.33-6.66-12.59-1.38-19.05-0.67
	c-5.33,0.59-10.6,2.04-15.77,3.57C494.84,478.6,486.32,490.07,486.18,507.4z M470.88,505.21c2.96-14.11-6.68-23.14-18.51-30.2
	c-5.78-3.45-12.73-5.04-19.26-7.12c-5.49-1.75-12.19-6.38-16.64-2.53c-5.57,4.82-2.42,12.9-1.16,19.5
	c1.74,9.1,6.58,16.42,14.88,20.86c8.2,4.39,16.46,8.74,24.98,12.44C470.41,524.78,471.07,524.17,470.88,505.21z"/>
<path class="st7" d="M702.29,751.28l-33.81-35.14c-2.95-3.06-2.85-7.93,0.21-10.88c3.06-2.95,7.93-2.85,10.88,0.21l20.46,21.27
	l-0.55-94.46c0-0.02,0-0.03,0-0.05c0-4.23,3.42-7.67,7.65-7.69c4.25-0.03,7.72,3.4,7.74,7.65l0.55,94.5l19.96-21.16
	c2.92-3.09,7.79-3.23,10.88-0.32c1.6,1.51,2.41,3.55,2.41,5.6c0,1.89-0.7,3.79-2.1,5.28l-33.15,35.14c-1.44,1.53-3.45,2.4-5.56,2.41
	C705.76,753.65,703.75,752.8,702.29,751.28z"/>
</svg>
