<svg id="Layer_1" data-name="Layer 1" xmlns="http://www.w3.org/2000/svg" viewBox="0 0 1024 1024"><defs><style>.cls-1{fill:#925de6;}.cls-2{fill:#fff;}</style></defs><title>Website Icon</title><rect class="cls-1" x="0.22" width="1024" height="1024" rx="166.69"/><path class="cls-2" d="M521.82,631.94c1.93-35.64-.12-80,10.18-123.46,8.86-37.35,30.19-63,68.87-71.17,10.25-2.17,10.2-6.07,5.56-13.34-7.18-11.21-14.19-22.53-21.28-33.8-10.44-16.59-18.19-34.33-20.26-53.93-4.32-40.83,6.22-76.66,41.91-99.86,38.65-25.12,79.85-23.27,118.83-.72,50,28.92,76.42,76,93,129.57,16.48,53.09,19,107.14,9,161.56-2.13,11.61,1.43,16.07,10.7,20.87,24.77,12.83,50,24.47,76.45,33.34,7,2.33,14.73,4.14,14.76,13.5.13,47.07,6,94.72-10.92,140.34C899.9,785.55,861.33,815.78,812.53,835c-6.83,2.69-12.86.86-19.24-1.64C722.47,805.71,685.6,753.77,683.15,678c-.5-15.59-4.21-23.74-20.5-29.95-47.92-18.26-72.42-74.62-60-132.16,3.58-16.54,8.2-32.86,12.3-49.29,3.83-15.37-3.34-18.18-16.4-14.32-21.83,6.45-36.37,20.79-45.3,41.39C541.21,521.62,539.82,551.45,539,581c-1.36,49.62-.84,99.29-1.26,148.94-.06,6.91,2,17.29-8.1,17-9.73-.26-7.73-10.59-7.77-17.56C521.73,699.73,521.82,670.06,521.82,631.94ZM623,424.24c9.29-10.63,16.41-19.67,24.53-27.7,4.52-4.47,9.31-14.77,17.09-7.27,6.67,6.43-2.4,11.56-6.28,16.3-7.65,9.37-15.64,18.46-23.67,27.51-5.58,6.29-5.32,11.59,1.69,16.55,11.84,8.38,23.56,16.93,35.36,25.38,4.73,3.39,12.51,5.87,8.38,13.49-4.42,8.14-10.6,2.36-15.33-.59-11.42-7.15-22.5-14.85-34.66-23-4.9,21.2-10.42,40.43-13.64,60-6.55,39.84,2.94,74.63,36.26,100.18,7.52,5.77,16.9,14.56,25.64,10.44s2.31-16.36,3.64-24.91c.64-4.15.22-8.46.21-12.7,0-6.85,3.15-11.71,9.49-14,37.68-13.6,72.89-32.36,108.61-50.24,9.83-4.92,13.47-10,14.72-19.12,10.13-73.7-.8-143.54-39.2-208-17.11-28.73-39.61-51.8-71.5-64.44-37.83-15-78.72-8.22-102.64,17.36-25.08,26.82-30.88,68.64-12.93,105.07C598.62,384.55,610.88,403.28,623,424.24Zm293.42,224.1-.62-.06c0-12.09-.43-24.21.13-36.28.49-10.39-2.79-16.09-13.44-19.94-29.57-10.69-58.33-23.54-85.54-39.41-7.72-4.5-13.78-4.44-21.65-.19-28.16,15.26-56.59,30.14-87.05,40.42-8.32,2.81-11,7.65-10.83,16.1.54,27.2-1.41,54.58,1,81.58,5.63,62.65,40.19,104.45,97.82,128.06,5.87,2.4,11.26,2.75,17.38.13C866,796.38,902,759.94,912.49,702.52,915.72,684.81,915.23,666.42,916.44,648.34Z"/><path class="cls-2" d="M450.18,645.08c-1.69-44.1.75-88.48-9.45-132-6.91-29.48-20.7-52.84-52.53-61-12.29-3.15-16.83.54-15.05,13.37,2.34,17,9.11,32.59,13.45,48.94,17.27,65-21.14,130-83.94,142.12-49.34,9.49-98.6-17-123.47-66.51-47.85-95.21-25.57-248,47.65-325.62a144.46,144.46,0,0,1,57.21-37.47c45.79-16.31,92-5.51,119.31,27.63s29.89,86.45,5.95,126.35c-8.71,14.52-18,28.67-27,43.06-4.21,6.81-5.34,11.44,5.54,13.32,35,6,54.14,29.45,64.82,61.47,5.8,17.38,7.68,35.49,9,53.59,4.25,59.24,3.34,118.61,3.25,177.94,0,6.37,1.51,15.69-7.59,15.78-9.84.1-6.94-9.72-7-15.62C450,702,450.17,673.54,450.18,645.08Zm-85-221.86c14.34-26.56,35.33-47.14,41.52-75.79,7.44-34.46,4-67-23.54-92-26.77-24.33-58.65-27-91.8-15.34S233.37,274.69,214.68,304c-32.54,51-46.1,107.75-45.77,167.53.23,42.65,6.86,84.54,29.9,122C225,636,271,653.46,314.22,637.57c42.85-15.74,67.48-59.9,59.3-108.4-3.21-19-9.24-37.51-13.19-56.41-2-9.54-5.58-6.84-10.81-3.05-8.32,6-16.79,11.88-25.49,17.37-4.86,3.06-11.06,8.67-15.86,1.71-5.09-7.4,3-10.17,7.64-13.51,11.77-8.49,23.64-16.85,35.47-25.27,7.38-5.25,8.33-10.74,1.76-17.78-9.08-9.72-17.61-20-26.25-30.09-3.54-4.16-8-8.92-2-14s10.07.31,13.61,4.24C347.16,402.19,355.64,412.24,365.14,423.22Z"/><path class="cls-2" d="M789.09,738.92c-2.67-1.36-5.19-2-6.74-3.54q-19.12-19.35-37.88-39c-3.22-3.38-4.26-7.83,0-11.07,3.81-2.88,8.15-2,11.49,1.41,8,8.24,16.25,16.29,23.66,25,6.4,7.55,10.82,6.62,17.09-.44,20.07-22.6,40.6-44.79,61.26-66.86,4.07-4.35,8.74-12.79,16-5,6.24,6.77-2.05,10.66-5.64,14.64q-34.56,38.43-69.64,76.39C795.89,733.5,792.48,736,789.09,738.92Z"/></svg>