<svg id="Layer_1" data-name="Layer 1" xmlns="http://www.w3.org/2000/svg" viewBox="0 0 896 1080"><defs><style>.cls-1{fill:#fff;}</style></defs><title>icon</title><g id="Layer_38" data-name="Layer 38"><path class="cls-1" d="M332.26,404.26c-119,.14-215.47,96.59-215.62,215.61a13.26,13.26,0,0,0,26.51,0c.07-104.41,84.7-189,189.11-189.11a13.25,13.25,0,0,0,0-26.5Z"/><path class="cls-1" d="M829.75,377.75A39.76,39.76,0,0,0,792,351.25H532.9a49.57,49.57,0,0,0-36.45,16.3,49.57,49.57,0,0,0-36.71-16.3h-59.1L460.41,270a13.31,13.31,0,0,0-2.92-18.55l-49.3-36.31a13.24,13.24,0,0,0-18.53,2.76l0,0-29.42,39.76v-71A13.26,13.26,0,0,0,347,173.4H255a13.26,13.26,0,0,0-13.26,13.26V367.28A268.78,268.78,0,0,0,63.63,619.87V805.4a35.79,35.79,0,0,0,59.64,26.51l15.5-13.25,5.31,10.86a82.66,82.66,0,0,0,111.58,37.37l24.65-12.45a255.93,255.93,0,0,0,38-24v67.19a13.25,13.25,0,0,0,13.25,13.25h91.58a13.25,13.25,0,0,0,13.25-13.25V705.75A49.45,49.45,0,0,0,468,684.28a48.66,48.66,0,0,0,32.87,13.25,49.85,49.85,0,0,0,8.87-.8l28.63-5,87.2,151.07a13.15,13.15,0,0,0,18.16,4.77l79.51-45.85a13.2,13.2,0,0,0,4.77-18l-66.26-115.3a104.29,104.29,0,0,0,68-119.27h0a78.05,78.05,0,0,1,26.51-74.74l61.62-51.68A39.77,39.77,0,0,0,829.75,377.75ZM402.89,244.3,431.12,265l-62.68,86.27h-7.82V303.41ZM268.25,199.91h65.2V351.25h-1.19a267.7,267.7,0,0,0-64,7.95Zm0,630.41-24.78,13.25A56.05,56.05,0,0,1,168.1,819c-.15-.28-.29-.57-.44-.87L159.45,801a393.68,393.68,0,0,1,219.32-90.38A234.3,234.3,0,0,1,268.38,830.32ZM344.71,884V807a259.27,259.27,0,0,0,63.48-99.12h2.12V884Zm83-203.69-38.16,2.12A419.84,419.84,0,0,0,134.27,786.85L105.64,812a8.75,8.75,0,0,1-9.94,1.59,9,9,0,0,1-5.56-8.48V619.61C90.43,486.05,198.7,377.9,332.26,377.75H459.74a23.07,23.07,0,0,1,23.06,23.07,23.33,23.33,0,0,1-.26,3.44h0L449.41,660.82a22.81,22.81,0,0,1-21.6,19.48ZM641.83,817.59,566,686.27l68.25-11.8,64,110.79Zm159-415.45-62,52.08a104.58,104.58,0,0,0-35.39,100.19h0A78,78,0,0,1,641.84,646l-1.34.25-135.43,24a23.08,23.08,0,0,1-26.51-25.58v-1.32l31.81-245.57a23.05,23.05,0,0,1,22.79-20H792.51a13.39,13.39,0,0,1,8.21,24.39Z"/></g></svg>