<svg id="Layer_1" data-name="Layer 1" xmlns="http://www.w3.org/2000/svg" viewBox="0 0 896 1080"><defs><style>.cls-1{fill:none;stroke:#fff;stroke-linecap:round;stroke-linejoin:round;stroke-width:20px;}</style></defs><title>icon</title><path class="cls-1" d="M557.51,505.11H216.05A89.13,89.13,0,0,1,126.91,416h0a89.13,89.13,0,0,1,89.14-89.13H647.12"/><path class="cls-1" d="M647.12,683.38H216.05a89.13,89.13,0,0,0-89.14,89.13h0a89.14,89.14,0,0,0,89.14,89.14H597.59v33.83h82.85V846.32a73.81,73.81,0,0,0-73.8-73.81h-52"/><path class="cls-1" d="M536.47,594.25H638.66a89.13,89.13,0,0,1,89.14,89.13h0a89.13,89.13,0,0,1-89.14,89.13H204.19"/><path class="cls-1" d="M557.51,683.38H216.05a89.14,89.14,0,0,1-89.14-89.13h0a89.14,89.14,0,0,1,89.14-89.14H647.12"/><path class="cls-1" d="M536.47,416H638.66a89.14,89.14,0,0,1,89.14,89.13h0a89.14,89.14,0,0,1-89.14,89.14H204.19"/><path class="cls-1" d="M524,326.85H334.26a70.71,70.71,0,0,1-70.71-70.71V184.52h84.63v53.19H638.66a89.14,89.14,0,0,1,89.14,89.14h0A89.14,89.14,0,0,1,638.66,416H204.19"/></svg>