<svg id="Layer_1" data-name="Layer 1" xmlns="http://www.w3.org/2000/svg" viewBox="0 0 1024 1024"><defs><style>.cls-1{fill:#925de6;}.cls-2{fill:#fff;}</style></defs><title>Website Icon</title><rect class="cls-1" x="0.22" width="1024" height="1024" rx="166.69"/><path class="cls-2" d="M637,608.37C637.59,737.82,543.47,837,419.78,846c-113.22,8.18-219.43-80.22-236.46-195.74-9.4-63.79,7.09-122.11,35.3-178,50.69-100.36,113.74-193.11,177.82-285.18,6.58-9.46,13.52-14.67,22-2.16C491.59,292.46,565.92,399.3,617.64,519.57,631,550.62,636.25,583.37,637,608.37ZM408.43,197.46c-14.49,21.32-27.52,40.19-40.25,59.27-53,79.47-105.86,159.07-145.82,246.18-29,63.17-36.78,128.58-9.07,193.92,34,80.21,96.25,126.81,183.11,131.87,85.81,5,152.89-32.22,196.22-107.65,38-66.25,36.27-134.79,6.9-203.4C566.59,440.74,521.16,370.76,476.4,300.5,454.77,266.54,432.09,233.25,408.43,197.46Z"/><path class="cls-2" d="M359.64,666.55c.29,26.17-13.27,45.11-34.05,50.53-20.38,5.32-40.91-3.26-51.07-21.35-11.19-19.93-7.95-43.56,8-58.13,16.32-14.93,37.88-16.31,58.19-2.77,5.74,3.83,9.82,6.78,16.9,2.48,6.78-4.12,7.41-9.2,7-16.1-1.44-22.85,8-39.23,29.06-49.38,13-6.24,12.95-30.12.06-36.81-16.65-8.64-27.23-21.26-29-40.07-2.17-22.66,13-44.14,34.22-49.58,22.18-5.69,44.34,5.54,53.37,27,9.33,22.2,1.92,46.28-18.14,59-23,14.5-23.18,29.67-.75,43.9,15.34,9.74,22.29,24,22.66,42,.47,22.83,7.71,26.92,26.51,15.35s41.56-9.41,56.77,5.23,18.27,39.25,7.14,58.48c-10.52,18.19-32.77,26.48-53.33,19.9-20.18-6.47-33.25-25.21-31.35-47.37.73-8.52.15-14.08-7.66-19.32-8.81-5.91-12.61,1-18.13,4.48-16.8,10.62-33.76,10.44-50.9.75-5.66-3.2-9.58-10.11-18.49-5S358.9,661.85,359.64,666.55ZM380.1,489.39c-.73,17.14,11.74,31.54,28.32,32.7s31.24-11.78,32.48-28.44c1.28-17.18-12.5-33-29.46-33.84C395,459,380.84,472.33,380.1,489.39ZM313.23,641.05c-16.05.17-30.26,15-30,31.38S297.92,703,314.12,703c16.46-.07,30.25-14.44,29.83-31.1C343.54,655.41,329.05,640.88,313.23,641.05Zm96.4-56.11a30.28,30.28,0,0,0-29.74,31.22c.37,17.15,13.79,30.11,31,30,16.55-.13,30.1-14.36,29.74-31.21A30.39,30.39,0,0,0,409.63,584.94Zm97.91,55.74c-16.77.14-29.91,13.83-29.87,31.14s13.2,31,30,31c16.59,0,30.2-14.13,30-31.08C537.35,654.38,524,640.55,507.54,640.68Z"/><path class="cls-2" d="M769.18,788.23,735.37,753.1a7.7,7.7,0,0,1,11.09-10.68l20.46,21.27-.55-94.46v0a7.7,7.7,0,0,1,15.39-.05l.56,94.5,20-21.16A7.7,7.7,0,0,1,813.48,753l-33.15,35.14a7.71,7.71,0,0,1-11.15.05Z"/><path class="cls-2" d="M774.08,429.87h0a7.69,7.69,0,0,1,7.69,7.69v235.5a0,0,0,0,1,0,0H766.39a0,0,0,0,1,0,0V437.55a7.69,7.69,0,0,1,7.69-7.69Z"/></svg>