<?xml version="1.0" encoding="utf-8"?>
<!-- Generator: Adobe Illustrator 24.0.2, SVG Export Plug-In . SVG Version: 6.00 Build 0)  -->
<svg version="1.1" id="Layer_1" xmlns="http://www.w3.org/2000/svg" xmlns:xlink="http://www.w3.org/1999/xlink" x="0px" y="0px"
	 viewBox="0 0 1024 1024" style="enable-background:new 0 0 1024 1024;" xml:space="preserve">
<style type="text/css">
	.st0{fill:#64A2BD;}
	.st1{fill:#DEA350;}
	.st2{fill:#5C976F;}
	.st3{fill:#BB6872;}
	.st4{fill:#925DE6;}
	.st5{fill:#CA4941;}
	.st6{fill:#2D3B7F;}
	.st7{fill:#FFFFFF;}
	.st8{fill:none;stroke:#FFFFFF;stroke-width:18.0104;stroke-linecap:round;stroke-linejoin:round;stroke-miterlimit:10;}
	.st9{fill:none;stroke:#FFFFFF;stroke-width:23.5118;stroke-linecap:round;stroke-linejoin:round;stroke-miterlimit:10;}
	.st10{fill:none;stroke:#FFFFFF;stroke-width:20.1529;stroke-linecap:round;stroke-linejoin:round;stroke-miterlimit:10;}
	.st11{fill:none;stroke:#FFFFFF;stroke-width:22.9223;stroke-linecap:round;stroke-linejoin:round;stroke-miterlimit:10;}
	.st12{fill:none;stroke:#FFFFFF;stroke-width:19.6477;stroke-linecap:round;stroke-linejoin:round;stroke-miterlimit:10;}
	.st13{fill:none;stroke:#FFFFFF;stroke-width:18.4735;stroke-linecap:round;stroke-linejoin:round;stroke-miterlimit:10;}
	.st14{fill:none;stroke:#FFFFFF;stroke-width:20;stroke-linecap:round;stroke-linejoin:round;stroke-miterlimit:10;}
	.st15{fill:none;stroke:#FFFFFF;stroke-width:10;stroke-miterlimit:10;}
	.st16{fill:none;stroke:#FFFFFF;stroke-width:20;stroke-miterlimit:10;}
	.st17{fill:none;stroke:#FFFFFF;stroke-width:16.6607;stroke-miterlimit:10;}
	.st18{fill:none;stroke:#FFFFFF;stroke-width:20.5133;stroke-linecap:round;stroke-linejoin:round;stroke-miterlimit:10;}
	.st19{fill:none;stroke:#FFFFFF;stroke-width:15;stroke-miterlimit:10;}
	.st20{fill:none;stroke:#FFFFFF;stroke-width:10;stroke-linecap:round;stroke-linejoin:round;stroke-miterlimit:10;}
	.st21{fill:none;stroke:#000000;stroke-width:6.62;stroke-linecap:round;stroke-linejoin:round;stroke-miterlimit:10;}
	.st22{fill:none;stroke:#FFFFFF;stroke-width:22.5062;stroke-linecap:round;stroke-linejoin:round;stroke-miterlimit:10;}
</style>
<path class="st1" d="M857.31,1024H166.69C74.63,1024,0,949.37,0,857.31V166.69C0,74.63,74.63,0,166.69,0h690.62
	C949.37,0,1024,74.63,1024,166.69v690.62C1024,949.37,949.37,1024,857.31,1024z"/>
<g>
	<path class="st7" d="M697.22,224.7c0.15-14.16-5.95-19.08-19.85-17.54c-50.26,5.59-100.49,11.1-149.75,23.16
		c-68.73,16.83-134.82,39.74-188.61,88.06c-83.6,75.09-131.36,209.84-39.64,334.32c6.44,8.74,4.49,13.94-1.18,21.21
		c-27.27,35.01-56.77,67.83-91.24,95.97c-6.46,5.28-14.56,10.62-6.41,19.83c8.16,9.22,14.78,1.59,20.67-3.89
		c33.79-31.45,66.99-63.49,94.04-101.18c5.05-7.04,9.25-9.94,18.6-6.01c56.74,23.82,114.53,22.75,172.34,4.39
		c8.42-2.67,25.41-0.94,20.36-17.34c-5.58-18.12-18.1-3.87-26.05-1.5c-49.18,14.65-98.01,17.68-147.11,0.24
		c-11.75-4.17-16.64-9.17-7.21-21.28c15.51-19.93,30.09-40.61,44.45-61.4c3.69-5.34,7.77-7.64,12.76-7.86
		c2.18-7.49,6.02-13.68,11.15-18.13c-2.15-2.23-1.23-6.06,3.73-12.35c10.16-12.88,18.98-26.82,28.99-39.83
		c30.45-39.55,61.27-78.81,91.72-118.36c3.92-5.09,11.37-11.26,3.8-17.86c-7.57-6.62-12.84,1.42-16.99,6.25
		c-12.35,14.38-25.46,28.24-36.09,43.93c-7.79,11.49-2.14,2.01-38.27,49.28c-23,30.09-34.03,45.43-36.23,48.44
		c-4.14,5.65-8.23,11.34-12.24,17.08c-5.66,8.11-9.56,10.87-13.55,5.57c-2.03,6.17-5.59,11.85-10.81,16.67
		c-0.54,0.5-1.11,0.97-1.68,1.42c2.74,4.92,0.98,9.19-2.59,14.05c-16.11,21.86-32.11,43.81-47.76,66
		c-6.66,9.45-11.63,7.44-16.7-1.04c-22.32-37.4-38.88-76.88-38.76-121.2c0.23-82.4,35.5-147.8,101.42-195.7
		c87.31-63.45,190.26-77.76,293.76-89.22c11.75-1.3,11.47,6.26,11.51,14.35c0.28,51.21-2.55,102.31-5.32,153.42
		c-1.88,34.74-6.18,69.16-13.2,103.25c-1.06,5.16-3.32,12.08,5.44,13.38c7.1,1.06,12.39-1.47,13.84-9.32
		c0.58-3.1,1.38-6.16,2.05-9.24c12.36-57.12,14.09-115.24,16.45-175.99C697.11,289.15,696.88,256.92,697.22,224.7z"/>
	<path class="st7" d="M826.83,679.17c1.92,72.47-57.97,135.9-130.22,137.89c-72.79,2.01-136.96-57.45-139.12-128.9
		c-2.32-76.7,58.31-141.6,133.6-143.02C764.41,543.76,824.82,603.41,826.83,679.17z M578.67,682.08
		c0.04,62.3,53.39,116.12,114.54,115.57c60.02-0.55,113.09-54.34,113.61-115.17c0.55-63.94-51.25-116.53-114.87-116.64
		C630.21,565.74,578.62,618.68,578.67,682.08z"/>
	<path class="st9" d="M367.68,455c-12.83,38.87-0.34,80.58,29.9,103c35.9,26.61,78.79,12.68,82.71,11.33"/>
	<path class="st10" d="M426.88,395.81c-12.83,38.87-0.34,80.58,29.9,103c35.9,26.61,78.79,12.68,82.71,11.33"/>
	<path class="st10" d="M483.55,339.14c-12.83,38.87-0.34,80.58,29.9,103c35.9,26.61,78.79,12.68,82.71,11.33"/>
	<circle class="st7" cx="368.65" cy="452.07" r="18.26"/>
	<circle class="st7" cx="428.75" cy="391.96" r="18.26"/>
	<circle class="st7" cx="487.41" cy="333.31" r="18.26"/>
	<circle class="st7" cx="605.24" cy="451.15" r="18.26"/>
	<circle class="st7" cx="546.33" cy="510.06" r="18.26"/>
	<circle class="st7" cx="490.54" cy="565.85" r="18.26"/>
	<path class="st7" d="M550.29,336.72c0-10.08,11.42-15.16,18.26-18.26c3.1-1.4,16.08-7.28,21.02-2.06
		c4.58,4.84-0.74,16.06-2.76,20.32c-3.54,7.46-8.55,18.26-18.26,18.26C558.46,354.98,550.29,346.8,550.29,336.72z"/>
	<g>
		<path class="st7" d="M698.49,745.99h-12.03c-4,0-7.25-3.24-7.25-7.25V623.27c0-4,3.24-7.25,7.25-7.25h12.03
			c4,0,7.25,3.24,7.25,7.25v115.48C705.74,742.75,702.49,745.99,698.49,745.99z"/>
		<path class="st7" d="M757.46,675.1v12.03c0,4-3.24,7.25-7.25,7.25H634.74c-4,0-7.25-3.24-7.25-7.25V675.1c0-4,3.24-7.25,7.25-7.25
			h115.48C754.21,667.85,757.46,671.1,757.46,675.1z"/>
	</g>
</g>
</svg>
