<?xml version="1.0" encoding="utf-8"?>
<!-- Generator: Adobe Illustrator 24.0.2, SVG Export Plug-In . SVG Version: 6.00 Build 0)  -->
<svg version="1.1" id="Layer_1" xmlns="http://www.w3.org/2000/svg" xmlns:xlink="http://www.w3.org/1999/xlink" x="0px" y="0px"
	 viewBox="0 0 1024 1024" style="enable-background:new 0 0 1024 1024;" xml:space="preserve">
<style type="text/css">
	.st0{fill:#64A2BD;}
	.st1{fill:#DEA350;}
	.st2{fill:#5C976F;}
	.st3{fill:#BB6872;}
	.st4{fill:#925DE6;}
	.st5{fill:#CA4941;}
	.st6{fill:#2D3B7F;}
	.st7{fill:#FFFFFF;}
	.st8{fill:none;stroke:#FFFFFF;stroke-width:18.0104;stroke-linecap:round;stroke-linejoin:round;stroke-miterlimit:10;}
	.st9{fill:none;stroke:#FFFFFF;stroke-width:23.5118;stroke-linecap:round;stroke-linejoin:round;stroke-miterlimit:10;}
	.st10{fill:none;stroke:#FFFFFF;stroke-width:20.1529;stroke-linecap:round;stroke-linejoin:round;stroke-miterlimit:10;}
	.st11{fill:none;stroke:#FFFFFF;stroke-width:22.9223;stroke-linecap:round;stroke-linejoin:round;stroke-miterlimit:10;}
	.st12{fill:none;stroke:#FFFFFF;stroke-width:19.6477;stroke-linecap:round;stroke-linejoin:round;stroke-miterlimit:10;}
	.st13{fill:none;stroke:#FFFFFF;stroke-width:18.4735;stroke-linecap:round;stroke-linejoin:round;stroke-miterlimit:10;}
	.st14{fill:none;stroke:#FFFFFF;stroke-width:20;stroke-linecap:round;stroke-linejoin:round;stroke-miterlimit:10;}
	.st15{fill:none;stroke:#FFFFFF;stroke-width:10;stroke-miterlimit:10;}
	.st16{fill:none;stroke:#FFFFFF;stroke-width:20;stroke-miterlimit:10;}
	.st17{fill:none;stroke:#FFFFFF;stroke-width:16.6607;stroke-miterlimit:10;}
	.st18{fill:none;stroke:#FFFFFF;stroke-width:20.5133;stroke-linecap:round;stroke-linejoin:round;stroke-miterlimit:10;}
	.st19{fill:none;stroke:#FFFFFF;stroke-width:15;stroke-miterlimit:10;}
	.st20{fill:none;stroke:#FFFFFF;stroke-width:10;stroke-linecap:round;stroke-linejoin:round;stroke-miterlimit:10;}
	.st21{fill:none;stroke:#000000;stroke-width:6.62;stroke-linecap:round;stroke-linejoin:round;stroke-miterlimit:10;}
	.st22{fill:none;stroke:#FFFFFF;stroke-width:22.5062;stroke-linecap:round;stroke-linejoin:round;stroke-miterlimit:10;}
</style>
<path class="st1" d="M857.31,1024H166.69C74.63,1024,0,949.37,0,857.31V166.69C0,74.63,74.63,0,166.69,0h690.62
	C949.37,0,1024,74.63,1024,166.69v690.62C1024,949.37,949.37,1024,857.31,1024z"/>
<g>
	<g>
		<path class="st7" d="M118.84,514.67c-14.02,85.23,16.79,140.95,94.4,167.49c100.9,34.5,192.01,15.45,270.51-57.33
			c0,0,66.02-54.3,109.94-80.28c0,0,4.66-3.29,21.9-10.09c5.22-2.06,11.18-4.17,15.28-1.34c0.31,0.22,2.13,1.5,2.73,3.45
			c1.58,5.05-5.52,12.9-17.1,19.68c0,0-2.82,1.22-19.31,10.57c-42.33,24.01-92.18,66.87-92.18,66.87
			c-88.82,84.15-192.25,105.71-307.33,64.17c-57.21-20.66-105.4-69.32-102.25-146.73c1.45-35.68-0.57-71.5,0.64-107.19
			c1.64-48.45,24.99-86.77,59.87-118.75c55.66-51.05,124.03-74.7,196.41-87.81c105.82-19.17,211.03-15.32,314.85,14.01
			c30.97,8.75,60.49,21,86.63,40.28c21.9,16.15,32.48,37.55,31.81,65.12c-0.85,35.1,0.24,70.26-1.04,105.33
			c-0.5,13.51,2.6,18.9,16.63,21.8c106.45,22,159.36,137.86,107.11,233.04c-37.93,69.09-123.65,100.05-193.81,70
			c-75.23-32.22-114.45-113.63-90.66-190.08c19.15-61.55,59.84-100.92,123.81-113.71c12.73-2.54,17.87-7.4,17.54-20.21
			c-0.58-21.93-0.16-43.88-0.16-70.38c-27.81,27.87-61.04,30.89-93.75,35.81c-59.38,8.94-108.84,37.24-152.12,77.94
			c-37.8,35.55-81.14,62.01-131.46,76.09c-52.61,14.72-105.58,17.53-158.85,3.61C185.41,574.65,147.56,554.23,118.84,514.67z
			 M476.02,246.52c-34.63-0.2-69.07,2.62-103.12,8.26c-73.73,12.22-144.3,32.7-201.77,84.09c-27.41,24.51-46.62,54.15-53.22,90.75
			c-8.66,48.04,21.16,96.52,74.5,121.6c60.86,28.61,123.49,29.51,187.6,12.31c52.16-13.99,94.37-43.64,133.56-79.42
			c44.71-40.81,96.46-67.76,157.51-75.1c23.87-2.87,47.54-7.11,68.54-20.26c31.65-19.82,34.68-52.09,6.67-76.53
			c-16.92-14.76-36.69-24.66-57.72-32.27C619.85,255.07,548.41,247.81,476.02,246.52z M638.25,640.4
			c0.2,76.12,59.05,136.68,132.96,136.84c74.34,0.16,136.11-60.52,136.58-134.16c0.49-77.19-60.13-141.57-133.35-141.62
			C700.24,501.4,638.05,564.84,638.25,640.4z"/>
		<path class="st7" d="M327.54,329.21c24.4-0.46,39.82,3.26,54.39,10.37c35.08,17.12,42.41,52.8,17.07,82.38
			c-31.45,36.71-99.21,50.25-142.52,28.46c-35.58-17.9-42.84-54.31-15.9-83.8C265.95,338.83,299.78,331.06,327.54,329.21z
			 M303.62,441.03c30.78-0.17,58.07-9.73,79.52-32.24c17.21-18.05,13.47-38.01-8.11-50.19c-34.55-19.5-94.64-8.76-120.63,21.57
			c-15.1,17.62-12.49,37.54,7,50.12C274.15,438.51,288.59,441.07,303.62,441.03z"/>
	</g>
	<path class="st7" d="M750.75,698.47c-2.05-1.43-5.45-3.05-7.88-5.6c-12.74-13.37-25.35-26.86-37.76-40.55
		c-4.09-4.51-8.86-9.67-2.92-16.01c6.41-6.85,12.25-3.23,17.44,1.92c8.3,8.24,16.94,16.23,24.39,25.2c6.65,8,10.91,6.79,17.21-0.45
		c21.01-24.15,42.49-47.89,64.03-71.57c5.08-5.59,10.41-14.79,19.52-7.09c10.51,8.88,0.58,15-4.78,21.1
		c-24.39,27.74-48.9,55.37-73.4,83.02C762.6,692.95,759.39,698.71,750.75,698.47z"/>
</g>
</svg>
