<?xml version="1.0" encoding="utf-8"?>
<!-- Generator: Adobe Illustrator 24.0.2, SVG Export Plug-In . SVG Version: 6.00 Build 0)  -->
<svg version="1.1" id="Layer_1" xmlns="http://www.w3.org/2000/svg" xmlns:xlink="http://www.w3.org/1999/xlink" x="0px" y="0px"
	 viewBox="0 0 1024 1024" style="enable-background:new 0 0 1024 1024;" xml:space="preserve">
<style type="text/css">
	.st0{fill:#64A2BD;}
	.st1{fill:#DEA350;}
	.st2{fill:#5C976F;}
	.st3{fill:#BB6872;}
	.st4{fill:#925DE6;}
	.st5{fill:#CA4941;}
	.st6{fill:#2D3B7F;}
	.st7{fill:#FFFFFF;}
	.st8{fill:none;stroke:#FFFFFF;stroke-width:18.0104;stroke-linecap:round;stroke-linejoin:round;stroke-miterlimit:10;}
	.st9{fill:none;stroke:#FFFFFF;stroke-width:23.5118;stroke-linecap:round;stroke-linejoin:round;stroke-miterlimit:10;}
	.st10{fill:none;stroke:#FFFFFF;stroke-width:20.1529;stroke-linecap:round;stroke-linejoin:round;stroke-miterlimit:10;}
	.st11{fill:none;stroke:#FFFFFF;stroke-width:22.9223;stroke-linecap:round;stroke-linejoin:round;stroke-miterlimit:10;}
	.st12{fill:none;stroke:#FFFFFF;stroke-width:19.6477;stroke-linecap:round;stroke-linejoin:round;stroke-miterlimit:10;}
	.st13{fill:none;stroke:#FFFFFF;stroke-width:18.4735;stroke-linecap:round;stroke-linejoin:round;stroke-miterlimit:10;}
	.st14{fill:none;stroke:#FFFFFF;stroke-width:20;stroke-linecap:round;stroke-linejoin:round;stroke-miterlimit:10;}
	.st15{fill:none;stroke:#FFFFFF;stroke-width:10;stroke-miterlimit:10;}
	.st16{fill:none;stroke:#FFFFFF;stroke-width:20;stroke-miterlimit:10;}
	.st17{fill:none;stroke:#FFFFFF;stroke-width:16.6607;stroke-miterlimit:10;}
	.st18{fill:none;stroke:#FFFFFF;stroke-width:20.5133;stroke-linecap:round;stroke-linejoin:round;stroke-miterlimit:10;}
	.st19{fill:none;stroke:#FFFFFF;stroke-width:15;stroke-miterlimit:10;}
	.st20{fill:none;stroke:#FFFFFF;stroke-width:10;stroke-linecap:round;stroke-linejoin:round;stroke-miterlimit:10;}
	.st21{fill:none;stroke:#000000;stroke-width:6.62;stroke-linecap:round;stroke-linejoin:round;stroke-miterlimit:10;}
	.st22{fill:none;stroke:#FFFFFF;stroke-width:22.5062;stroke-linecap:round;stroke-linejoin:round;stroke-miterlimit:10;}
</style>
<path class="st1" d="M857.31,1024H166.69C74.63,1024,0,949.37,0,857.31V166.69C0,74.63,74.63,0,166.69,0h690.62
	C949.37,0,1024,74.63,1024,166.69v690.62C1024,949.37,949.37,1024,857.31,1024z"/>
<g>
	<path class="st7" d="M353.43,794.06c-43.23-0.25-76.8-27.79-85.41-71.1c-1.76-8.87-4.88-12.16-14.09-13.82
		c-59.46-10.73-90.39-56.75-76.58-112.62c13.68-55.35,66.09-84.89,121.78-67.53c11.22,3.5,17.47,2.34,25.74-6.38
		c60.87-64.15,122.29-127.8,184.01-191.13c8.33-8.55,9.51-14.59,4.2-25.82c-22.45-47.46-4.2-101.26,41.03-125.1
		c45.35-23.91,97.8-9.52,123.42,34.32c4.39,7.51,9.3,16.22,9.38,24.41c0.15,16.49,6.96,21.22,22.77,24
		c51.78,9.1,83.85,64.29,69.13,115.75c-15.08,52.7-72.58,83.7-122.7,64.18c-13.4-5.22-20.07-2.63-28.93,6.52
		c-61.09,63.07-122.38,125.96-184.25,188.26c-8.82,8.88-6.59,15.01-2.46,24.43C467.86,724.88,421.63,794.45,353.43,794.06z
		 M667.8,262.54c0.44-27.78-10.63-48.55-33.69-62.46c-28.4-17.13-64.11-12.39-87.11,11.06c-25.68,26.19-30.28,63.13-10.57,93.76
		c6.78,10.53,10.81,17.73-0.35,29.09c-66.87,68.07-133.17,136.7-198.88,205.89c-12.51,13.18-22.43,17.3-40.47,9.3
		c-29.36-13.02-57.35-6.12-79.57,17.43c-22.54,23.89-27.76,52.22-14.95,82.42c12.25,28.87,35.69,41.62,66.65,39.86
		c12.04-0.69,16.77,2.95,17.35,15.65c1.49,32.8,20.09,57.49,47.75,65.97c27.52,8.43,57.24-1.23,76.4-24.85
		c20.64-25.44,23.74-54.94,5.92-82.54c-8.22-12.74-6.82-19.94,3.45-30.35c67.02-67.91,133.66-136.19,199.65-205.1
		c11.89-12.42,20.47-15.52,36.73-6.53c27.8,15.37,58.41,8.59,81.74-13.9c22.11-21.31,28.9-53.46,17.3-81.97
		c-11.13-27.35-35.78-44.01-67.3-42.84C671.57,283.03,662.77,280,667.8,262.54z"/>
	<g>
		<path class="st7" d="M849.91,707.36c-0.17,80.52-67.01,147.58-147.06,147.57c-79.3-0.01-144.96-67.1-144.35-147.52
			c0.62-81.38,65.41-147.32,144.73-147.29C784.09,560.16,850.08,626.4,849.91,707.36z M828.44,707.86
			c-0.03-69.5-56.08-126.62-124.13-126.48c-68.95,0.14-125.46,57.77-125.24,127.72c0.21,67.29,57.33,124.42,124.4,124.43
			C771.99,833.54,828.47,776.74,828.44,707.86z"/>
		<g>
			<path class="st7" d="M710.22,772.51h-12.03c-4,0-7.25-3.24-7.25-7.25V649.79c0-4,3.24-7.25,7.25-7.25h12.03
				c4,0,7.25,3.24,7.25,7.25v115.48C717.46,769.27,714.22,772.51,710.22,772.51z"/>
			<path class="st7" d="M769.18,701.62v12.03c0,4-3.24,7.25-7.25,7.25H646.46c-4,0-7.25-3.24-7.25-7.25v-12.03
				c0-4,3.24-7.25,7.25-7.25h115.48C765.94,694.37,769.18,697.62,769.18,701.62z"/>
		</g>
	</g>
</g>
</svg>
