<?xml version="1.0" encoding="utf-8"?>
<!-- Generator: Adobe Illustrator 24.0.2, SVG Export Plug-In . SVG Version: 6.00 Build 0)  -->
<svg version="1.1" id="Layer_1" xmlns="http://www.w3.org/2000/svg" xmlns:xlink="http://www.w3.org/1999/xlink" x="0px" y="0px"
	 viewBox="0 0 1024 1024" style="enable-background:new 0 0 1024 1024;" xml:space="preserve">
<style type="text/css">
	.st0{fill:#64A2BD;}
	.st1{fill:#DEA350;}
	.st2{fill:#5C976F;}
	.st3{fill:#BB6872;}
	.st4{fill:#925DE6;}
	.st5{fill:#CA4941;}
	.st6{fill:#2D3B7F;}
	.st7{fill:#FFFFFF;}
	.st8{fill:none;stroke:#FFFFFF;stroke-width:18.0104;stroke-linecap:round;stroke-linejoin:round;stroke-miterlimit:10;}
	.st9{fill:none;stroke:#FFFFFF;stroke-width:23.5118;stroke-linecap:round;stroke-linejoin:round;stroke-miterlimit:10;}
	.st10{fill:none;stroke:#FFFFFF;stroke-width:20.1529;stroke-linecap:round;stroke-linejoin:round;stroke-miterlimit:10;}
	.st11{fill:none;stroke:#FFFFFF;stroke-width:22.9223;stroke-linecap:round;stroke-linejoin:round;stroke-miterlimit:10;}
	.st12{fill:none;stroke:#FFFFFF;stroke-width:19.6477;stroke-linecap:round;stroke-linejoin:round;stroke-miterlimit:10;}
	.st13{fill:none;stroke:#FFFFFF;stroke-width:18.4735;stroke-linecap:round;stroke-linejoin:round;stroke-miterlimit:10;}
	.st14{fill:none;stroke:#FFFFFF;stroke-width:20;stroke-linecap:round;stroke-linejoin:round;stroke-miterlimit:10;}
	.st15{fill:none;stroke:#FFFFFF;stroke-width:10;stroke-miterlimit:10;}
	.st16{fill:none;stroke:#FFFFFF;stroke-width:20;stroke-miterlimit:10;}
	.st17{fill:none;stroke:#FFFFFF;stroke-width:16.6607;stroke-miterlimit:10;}
	.st18{fill:none;stroke:#FFFFFF;stroke-width:20.5133;stroke-linecap:round;stroke-linejoin:round;stroke-miterlimit:10;}
	.st19{fill:none;stroke:#FFFFFF;stroke-width:15;stroke-miterlimit:10;}
	.st20{fill:none;stroke:#FFFFFF;stroke-width:10;stroke-linecap:round;stroke-linejoin:round;stroke-miterlimit:10;}
	.st21{fill:none;stroke:#000000;stroke-width:6.62;stroke-linecap:round;stroke-linejoin:round;stroke-miterlimit:10;}
	.st22{fill:none;stroke:#FFFFFF;stroke-width:22.5062;stroke-linecap:round;stroke-linejoin:round;stroke-miterlimit:10;}
</style>
<path class="st3" d="M857.31,1024H166.69C74.63,1024,0,949.37,0,857.31V166.69C0,74.63,74.63,0,166.69,0h690.62
	C949.37,0,1024,74.63,1024,166.69v690.62C1024,949.37,949.37,1024,857.31,1024z"/>
<g>
	<path class="st7" d="M449.11,615.98c-2.59,63.14-38.14,121.48-107.48,155.47c-67.73,33.2-134.62,26.71-193.99-21.17
		c-60.21-48.56-83.4-112.51-69.09-188.95c8.74-46.7,32.03-87.62,54.07-128.82c34.57-64.6,72.89-126.99,113.15-188.19
		c10.43-15.85,18.25-16.61,27.52-2.15c54.43,84.96,109.42,169.63,151.97,261.47C439.58,534.57,449.35,566.84,449.11,615.98z
		 M428.49,600.07c0.67-36.9-12.86-69.82-28.64-102.08c-37.67-77.01-83.95-149.02-128.94-221.79c-8.25-13.35-12.68-14.53-21.54-0.35
		c-41.74,66.85-82.98,134-118.56,204.38c-19.48,38.52-36.96,78.02-36.58,122.63c0.78,91.03,79.39,168.8,169.6,167.82
		C353.02,769.72,429.32,690.67,428.49,600.07z"/>
	<path class="st7" d="M507.79,482.4c1.43-0.07,2.88-0.07,4.31,0c17.12,0.87,33.58,5.03,49.5,11.52c7.16,2.92,10.99,6.73,6.88,15.44
		c-3.67,7.77-8.39,7.64-14.75,4.72c-27.69-12.73-55.61-14.16-83.48-0.91c-8.93,4.25-12.04-0.72-15.22-7.43
		c-3.55-7.48,1.3-9.88,6.75-12.04C476.59,487.85,491.69,483.23,507.79,482.4z"/>
	<path class="st7" d="M396.72,599.56c-1.96,55.47-25.5,98.4-76.12,123.27c-51.32,25.22-101.47,19.91-145.06-16.55
		c-44.39-37.13-58.33-86.41-46.25-143.14c2.12-9.93,8-14.36,16.78-17.2c29.46-9.54,59.41-10.86,85.37,6.77
		c45.89,31.16,90.46,23.34,136.15,1.44c19.28-9.24,22.54-7.15,25.95,14.3c1.06,6.67,2.31,13.33,3.1,20.03
		C397.07,592.14,396.72,595.87,396.72,599.56z M144.54,598.88c-1.53,17.57,4.51,36.19,13.21,54.08
		c24.05,49.48,80.71,74.95,133.19,60.05c53.8-15.27,91.98-69.15,87.63-122.48c-1.27-15.5-5.43-20.18-21.2-13.07
		c-45.27,20.41-89.97,22.41-133.66-6.13c-12.22-7.98-27.02-11.75-42.22-11.6C151.39,560.04,145.05,566.26,144.54,598.88z"/>
	<path class="st7" d="M949.55,615.98c-2.59,63.14-38.14,121.48-107.48,155.47c-67.73,33.2-134.62,26.71-193.99-21.17
		c-60.21-48.56-83.4-112.51-69.09-188.95c8.74-46.7,32.03-87.62,54.07-128.82c34.57-64.6,72.89-126.99,113.15-188.19
		c10.43-15.85,18.25-16.61,27.52-2.15c54.43,84.96,109.42,169.63,151.97,261.47C940.03,534.57,949.8,566.84,949.55,615.98z
		 M928.94,600.07c0.67-36.9-12.86-69.82-28.64-102.08c-37.67-77.01-83.95-149.02-128.94-221.79c-8.25-13.35-12.68-14.53-21.54-0.35
		c-41.74,66.85-82.98,134-118.56,204.38c-19.48,38.52-36.96,78.02-36.58,122.63c0.78,91.03,79.39,168.8,169.6,167.82
		C853.47,769.72,929.77,690.67,928.94,600.07z"/>
	<path class="st7" d="M897.16,599.56c-1.96,55.47-25.5,98.4-76.12,123.27c-51.32,25.22-101.47,19.91-145.06-16.55
		c-44.39-37.13-58.33-86.41-46.25-143.14c2.12-9.93,8-14.36,16.78-17.2c29.46-9.54,59.41-10.86,85.37,6.77
		c45.89,31.16,90.46,23.34,136.15,1.44c19.28-9.24,22.54-7.15,25.95,14.3c1.06,6.67,2.31,13.33,3.1,20.03
		C897.52,592.14,897.16,595.87,897.16,599.56z M644.98,598.88c-1.53,17.57,4.51,36.19,13.21,54.08
		c24.05,49.48,80.71,74.95,133.19,60.05c53.8-15.27,91.98-69.15,87.63-122.48c-1.27-15.5-5.43-20.18-21.2-13.07
		c-45.27,20.41-89.97,22.41-133.66-6.13c-12.22-7.98-27.02-11.75-42.22-11.6C651.84,560.04,645.49,566.26,644.98,598.88z"/>
</g>
</svg>
