<?xml version="1.0" encoding="utf-8"?>
<!-- Generator: Adobe Illustrator 24.0.2, SVG Export Plug-In . SVG Version: 6.00 Build 0)  -->
<svg version="1.1" id="Layer_1" xmlns="http://www.w3.org/2000/svg" xmlns:xlink="http://www.w3.org/1999/xlink" x="0px" y="0px"
	 viewBox="0 0 1024 1024" style="enable-background:new 0 0 1024 1024;" xml:space="preserve">
<style type="text/css">
	.st0{fill:#64A2BD;}
	.st1{fill:#DEA350;}
	.st2{fill:#5C976F;}
	.st3{fill:#BB6872;}
	.st4{fill:#925DE6;}
	.st5{fill:#CA4941;}
	.st6{fill:#2D3B7F;}
	.st7{fill:#FFFFFF;}
	.st8{fill:none;stroke:#FFFFFF;stroke-width:18.0104;stroke-linecap:round;stroke-linejoin:round;stroke-miterlimit:10;}
	.st9{fill:none;stroke:#FFFFFF;stroke-width:23.5118;stroke-linecap:round;stroke-linejoin:round;stroke-miterlimit:10;}
	.st10{fill:none;stroke:#FFFFFF;stroke-width:20.1529;stroke-linecap:round;stroke-linejoin:round;stroke-miterlimit:10;}
	.st11{fill:none;stroke:#FFFFFF;stroke-width:22.9223;stroke-linecap:round;stroke-linejoin:round;stroke-miterlimit:10;}
	.st12{fill:none;stroke:#FFFFFF;stroke-width:19.6477;stroke-linecap:round;stroke-linejoin:round;stroke-miterlimit:10;}
	.st13{fill:none;stroke:#FFFFFF;stroke-width:18.4735;stroke-linecap:round;stroke-linejoin:round;stroke-miterlimit:10;}
	.st14{fill:none;stroke:#FFFFFF;stroke-width:20;stroke-linecap:round;stroke-linejoin:round;stroke-miterlimit:10;}
	.st15{fill:none;stroke:#FFFFFF;stroke-width:10;stroke-miterlimit:10;}
	.st16{fill:none;stroke:#FFFFFF;stroke-width:20;stroke-miterlimit:10;}
	.st17{fill:none;stroke:#FFFFFF;stroke-width:16.6607;stroke-miterlimit:10;}
	.st18{fill:none;stroke:#FFFFFF;stroke-width:20.5133;stroke-linecap:round;stroke-linejoin:round;stroke-miterlimit:10;}
	.st19{fill:none;stroke:#FFFFFF;stroke-width:15;stroke-miterlimit:10;}
	.st20{fill:none;stroke:#FFFFFF;stroke-width:10;stroke-linecap:round;stroke-linejoin:round;stroke-miterlimit:10;}
	.st21{fill:none;stroke:#000000;stroke-width:6.62;stroke-linecap:round;stroke-linejoin:round;stroke-miterlimit:10;}
	.st22{fill:none;stroke:#FFFFFF;stroke-width:22.5062;stroke-linecap:round;stroke-linejoin:round;stroke-miterlimit:10;}
</style>
<path class="st0" d="M857.31,1024H166.69C74.63,1024,0,949.37,0,857.31V166.69C0,74.63,74.63,0,166.69,0h690.62
	C949.37,0,1024,74.63,1024,166.69v690.62C1024,949.37,949.37,1024,857.31,1024z"/>
<g>
	<path class="st7" d="M755.78,243.16c0.15-13.8-5.8-18.6-19.35-17.1c-49,5.45-97.98,10.82-145.99,22.58
		c-67.01,16.41-131.44,38.75-183.88,85.85c-81.5,73.21-128.07,204.58-38.65,325.94c6.28,8.52,4.38,13.59-1.15,20.68
		c-26.59,34.13-55.35,66.13-88.95,93.56c-6.3,5.14-14.19,10.35-6.25,19.33c7.95,8.99,14.41,1.55,20.15-3.8
		c32.94-30.66,65.31-61.9,91.68-98.64c4.93-6.87,9.01-9.69,18.14-5.86c15.63,6.56,31.34,11.19,47.11,14.04
		c24.94,4.52,78.32,4.28,120.91-9.76c0,0,99.93-32.96,151.28-128.63c10.94-20.39,15.18-41.37,15.18-41.37
		c8.83-40.9,0.21-80.21-4.23-80.17c-3.17,0.03-2.39,20.18-8.83,49.65c-4.82,22.08-15.45,68.49-52.01,111.69
		c-38.09,45.02-84.48,63.32-106.95,70.47c-25.13,6.04-46.68,8.8-62.82,10.14c0,0-37.6,3.13-80.6-9.9
		c-3.45-1.05-10.07-3.29-11.59-8.34c-0.93-3.08,0.36-7.03,4.56-12.41c15.12-19.43,29.34-39.59,43.33-59.86
		c3.6-5.21,7.57-7.45,12.44-7.66c2.12-7.31,5.87-13.33,10.87-17.68c-2.09-2.18-1.2-5.91,3.64-12.04
		c9.91-12.56,18.5-26.15,28.26-38.83c29.68-38.56,59.74-76.83,89.42-115.4c3.82-4.96,11.08-10.98,3.71-17.42
		c-7.38-6.45-12.52,1.38-16.57,6.1c-12.04,14.02-24.82,27.53-35.18,42.83c-7.59,11.2-2.09,1.96-37.31,48.04
		c-22.42,29.34-33.18,44.29-35.32,47.22c-4.03,5.51-8.02,11.06-11.93,16.66c-5.52,7.9-9.32,10.6-13.21,5.43
		c-1.98,6.01-5.45,11.55-10.54,16.25c-0.53,0.49-1.08,0.94-1.64,1.38c2.67,4.8,0.96,8.96-2.53,13.69
		c-15.71,21.31-31.3,42.71-46.56,64.35c-6.5,9.21-11.34,7.26-16.28-1.01c-21.76-36.46-37.91-74.95-37.78-118.17
		c0.23-80.33,34.61-144.09,98.88-190.79c85.12-61.85,185.49-75.81,286.4-86.98c11.45-1.27,11.18,6.1,11.22,13.99
		c0.27,49.93-2.48,99.75-5.18,149.57c-1.84,33.87-6.02,67.43-12.87,100.67c0,0-2.23,9.52,0.04,10.42c1.75,0.69,4.57-5.58,8.25-5.09
		c3.38,0.45,4.23,6.15,6.55,5.92c1.72-0.17,3.22-3.35,3.95-7.29c0.56-3.02,1.35-6,2-9.01c12.05-55.69,13.73-112.35,16.04-171.57
		C755.67,306,755.44,274.58,755.78,243.16z"/>
	<path class="st11" d="M434.5,467.69c-12.51,37.89-0.33,78.56,29.15,100.41c35,25.95,76.82,12.36,80.63,11.05"/>
	<path class="st12" d="M492.21,409.98c-12.51,37.89-0.33,78.56,29.15,100.41c35,25.95,76.82,12.36,80.63,11.05"/>
	<path class="st12" d="M547.46,354.74c-12.51,37.89-0.33,78.56,29.15,100.41c35,25.95,76.82,12.36,80.63,11.05"/>
	<circle class="st7" cx="435.44" cy="464.83" r="17.8"/>
	<circle class="st7" cx="494.04" cy="406.23" r="17.8"/>
	<circle class="st7" cx="551.22" cy="349.05" r="17.8"/>
	<circle class="st7" cx="666.1" cy="463.93" r="17.8"/>
	<circle class="st7" cx="608.67" cy="521.37" r="17.8"/>
	<circle class="st7" cx="554.27" cy="575.76" r="17.8"/>
	<path class="st7" d="M612.52,352.37c0-9.83,11.13-14.78,17.8-17.8c3.02-1.37,15.68-7.1,20.49-2.01c4.46,4.72-0.72,15.66-2.69,19.81
		c-3.45,7.27-8.34,17.8-17.8,17.8C620.49,370.17,612.52,362.2,612.52,352.37z"/>
</g>
</svg>
