<?xml version="1.0" encoding="utf-8"?>
<!-- Generator: Adobe Illustrator 24.0.2, SVG Export Plug-In . SVG Version: 6.00 Build 0)  -->
<svg version="1.1" id="Layer_1" xmlns="http://www.w3.org/2000/svg" xmlns:xlink="http://www.w3.org/1999/xlink" x="0px" y="0px"
	 viewBox="0 0 1024 1024" style="enable-background:new 0 0 1024 1024;" xml:space="preserve">
<style type="text/css">
	.st0{fill:#64A2BD;}
	.st1{fill:#DEA350;}
	.st2{fill:#5C976F;}
	.st3{fill:#BB6872;}
	.st4{fill:#925DE6;}
	.st5{fill:#CA4941;}
	.st6{fill:#2D3B7F;}
	.st7{fill:#FFFFFF;}
	.st8{fill:none;stroke:#FFFFFF;stroke-width:18.0104;stroke-linecap:round;stroke-linejoin:round;stroke-miterlimit:10;}
	.st9{fill:none;stroke:#FFFFFF;stroke-width:23.5118;stroke-linecap:round;stroke-linejoin:round;stroke-miterlimit:10;}
	.st10{fill:none;stroke:#FFFFFF;stroke-width:20.1529;stroke-linecap:round;stroke-linejoin:round;stroke-miterlimit:10;}
	.st11{fill:none;stroke:#FFFFFF;stroke-width:22.9223;stroke-linecap:round;stroke-linejoin:round;stroke-miterlimit:10;}
	.st12{fill:none;stroke:#FFFFFF;stroke-width:19.6477;stroke-linecap:round;stroke-linejoin:round;stroke-miterlimit:10;}
	.st13{fill:none;stroke:#FFFFFF;stroke-width:18.4735;stroke-linecap:round;stroke-linejoin:round;stroke-miterlimit:10;}
	.st14{fill:none;stroke:#FFFFFF;stroke-width:20;stroke-linecap:round;stroke-linejoin:round;stroke-miterlimit:10;}
	.st15{fill:none;stroke:#FFFFFF;stroke-width:10;stroke-miterlimit:10;}
	.st16{font-family:'KalbeGeometric-SemiBold';}
	.st17{font-size:218.2293px;}
	.st18{fill:none;stroke:#FFFFFF;stroke-width:20;stroke-miterlimit:10;}
	.st19{fill:none;stroke:#FFFFFF;stroke-width:16.6607;stroke-miterlimit:10;}
	.st20{fill:none;stroke:#FFFFFF;stroke-width:20.5133;stroke-linecap:round;stroke-linejoin:round;stroke-miterlimit:10;}
	.st21{fill:none;stroke:#FFFFFF;stroke-width:15;stroke-miterlimit:10;}
	.st22{fill:none;stroke:#FFFFFF;stroke-width:10;stroke-linecap:round;stroke-linejoin:round;stroke-miterlimit:10;}
	.st23{fill:none;stroke:#000000;stroke-width:6.62;stroke-linecap:round;stroke-linejoin:round;stroke-miterlimit:10;}
	.st24{fill:none;stroke:#FFFFFF;stroke-width:22.5062;stroke-linecap:round;stroke-linejoin:round;stroke-miterlimit:10;}
</style>
<path class="st3" d="M857.31,1024H166.69C74.63,1024,0,949.37,0,857.31V166.69C0,74.63,74.63,0,166.69,0h690.62
	C949.37,0,1024,74.63,1024,166.69v690.62C1024,949.37,949.37,1024,857.31,1024z"/>
<g>
	<path class="st7" d="M559.95,754.42c-3.18,1.77-6.1,4.03-9.04,6.2c-26.26,19.39-54.38,35.47-84.2,48.83
		c-9.04,4.05-16.42,3.54-25.18-0.29c-120.11-52.46-192.71-144-222.68-270.47c-15.91-67.12-13.96-135.54-14.09-203.82
		c-0.02-10.31,3.34-14.06,13.31-15.47c85.98-12.15,161.03-49.11,228.76-102.16c5.64-4.42,8.87-5.3,15.19-0.36
		c67.36,52.64,141.6,90.42,227.25,102.59c9.7,1.38,13.19,4.7,13.39,15.29c1.26,70.02-1.62,139.73-12.61,208.99
		c-0.19,1.19-0.41,2.32-0.66,3.41c2.22-0.73,5.29-1.48,9-1.66c3.44-0.17,6.38,0.2,8.57,0.65c2.11-5.88,3.79-11.98,4.92-18.1
		c8.53-46.14,10.5-92.8,10.18-139.59c0-22.76-0.29-45.52,0.12-68.27c0.21-11.34-3.88-17.04-15.72-18.47
		c-27.06-3.26-53.67-9-79.7-17.28c-58.56-18.62-109.91-50.23-157.59-88.17c-10.37-8.25-18.63-8.67-29.09-0.28
		c-22.83,18.31-46.7,35.21-72.09,49.92c-51.68,29.94-107.12,48.59-166.33,56.1c-9.26,1.18-16.51,3.69-16.61,15.2
		c-0.57,64.19-3.37,128.49,7.49,192.18c25.81,151.4,104.97,261.64,248.97,321.79c8.92,3.73,16.62,4.06,25.58,0.31
		c34.7-14.5,67.06-32.98,97.27-55.29c1.3-0.96,5.8-2.45,7.27-6.46c1.35-3.66-0.3-7.48-1.24-9.68c-0.96-2.24-2.65-6.16-5.9-6.76
		C563.27,753.06,562.06,753.25,559.95,754.42z"/>
	<path class="st7" d="M807.1,608.05c-14.84-17.04-31.97-29.87-51.54-37.83c-5.52-2.25-20.82-7.94-41.58-9.2
		c-19.16-1.16-34.36,1.99-42.7,4.19c-6.65,1.75-29.09,8.13-50.34,25.5c-27.03,22.09-44.6,54.69-49.18,92.79
		c-5.82,48.5,22.32,100.71,68.39,126.86c55.84,31.7,128.14,17.58,169.73-33.15C850.54,727.6,849.57,656.85,807.1,608.05z
		 M704.7,807.48c-62.33,0-113.1-50.12-113.26-111.8c-0.17-62.5,51.94-116,112.82-115.83c62.84,0.18,115.65,52.58,115.52,114.65
		C819.65,756.84,768.06,807.49,704.7,807.48z"/>
	<path class="st7" d="M649.45,688.52c3.97,0.24,6.66,2.67,9.26,5.31c7.12,7.23,14.48,14.23,21.33,21.7
		c4.86,5.3,8.08,5.85,13.37-0.16c16.89-19.18,34.47-37.75,51.82-56.53c3.03-3.28,6.15-6.48,9.32-9.61
		c4.34-4.28,9.27-5.59,13.86-0.87c4.15,4.27,2.83,8.87-0.92,12.97c-9.05,9.87-18.12,19.72-27.12,29.63
		c-14.46,15.92-28.98,31.79-43.26,47.87c-5.92,6.66-11.79,8.35-18.54,1.51c-11.41-11.55-22.8-23.11-34.13-34.73
		c-3.33-3.42-5.1-7.45-2.82-12.16C643.15,690.29,645.97,688.78,649.45,688.52z"/>
	<text transform="matrix(1 0 0 1 314.2308 560.7739)" class="st7 st16 st17">Zn</text>
</g>
</svg>
