<?xml version="1.0" encoding="utf-8"?>
<!-- Generator: Adobe Illustrator 24.0.2, SVG Export Plug-In . SVG Version: 6.00 Build 0)  -->
<svg version="1.1" id="Layer_1" xmlns="http://www.w3.org/2000/svg" xmlns:xlink="http://www.w3.org/1999/xlink" x="0px" y="0px"
	 viewBox="0 0 1024 1024" style="enable-background:new 0 0 1024 1024;" xml:space="preserve">
<style type="text/css">
	.st0{fill:#64A2BD;}
	.st1{fill:#DEA350;}
	.st2{fill:#5C976F;}
	.st3{fill:#BB6872;}
	.st4{fill:#925DE6;}
	.st5{fill:#CA4941;}
	.st6{fill:#2D3B7F;}
	.st7{fill:#FFFFFF;}
	.st8{fill:none;stroke:#FFFFFF;stroke-width:18.0104;stroke-linecap:round;stroke-linejoin:round;stroke-miterlimit:10;}
	.st9{fill:none;stroke:#FFFFFF;stroke-width:23.5118;stroke-linecap:round;stroke-linejoin:round;stroke-miterlimit:10;}
	.st10{fill:none;stroke:#FFFFFF;stroke-width:20.1529;stroke-linecap:round;stroke-linejoin:round;stroke-miterlimit:10;}
	.st11{fill:none;stroke:#FFFFFF;stroke-width:22.9223;stroke-linecap:round;stroke-linejoin:round;stroke-miterlimit:10;}
	.st12{fill:none;stroke:#FFFFFF;stroke-width:19.6477;stroke-linecap:round;stroke-linejoin:round;stroke-miterlimit:10;}
	.st13{fill:none;stroke:#FFFFFF;stroke-width:18.4735;stroke-linecap:round;stroke-linejoin:round;stroke-miterlimit:10;}
	.st14{font-family:'KalbeGeometric-SemiBold';}
	.st15{font-size:167.9412px;}
	.st16{fill:none;stroke:#FFFFFF;stroke-width:20;stroke-linecap:round;stroke-linejoin:round;stroke-miterlimit:10;}
	.st17{fill:none;stroke:#FFFFFF;stroke-width:10;stroke-miterlimit:10;}
	.st18{fill:none;stroke:#FFFFFF;stroke-width:20;stroke-miterlimit:10;}
	.st19{fill:none;stroke:#FFFFFF;stroke-width:16.6607;stroke-miterlimit:10;}
	.st20{fill:none;stroke:#FFFFFF;stroke-width:20.5133;stroke-linecap:round;stroke-linejoin:round;stroke-miterlimit:10;}
	.st21{fill:none;stroke:#FFFFFF;stroke-width:15;stroke-miterlimit:10;}
	.st22{fill:none;stroke:#FFFFFF;stroke-width:10;stroke-linecap:round;stroke-linejoin:round;stroke-miterlimit:10;}
	.st23{fill:none;stroke:#000000;stroke-width:6.62;stroke-linecap:round;stroke-linejoin:round;stroke-miterlimit:10;}
	.st24{fill:none;stroke:#FFFFFF;stroke-width:22.5062;stroke-linecap:round;stroke-linejoin:round;stroke-miterlimit:10;}
</style>
<path class="st0" d="M857.31,1024H166.69C74.63,1024,0,949.37,0,857.31V166.69C0,74.63,74.63,0,166.69,0h690.62
	C949.37,0,1024,74.63,1024,166.69v690.62C1024,949.37,949.37,1024,857.31,1024z"/>
<path class="st7" d="M889.35,618.96c-30.61-69.55-71.96-133.24-114.55-195.98c-9.09-13.4-17.56-13.35-26.1-0.16
	c-18.86,29.14-38.19,58.07-55.28,88.25c-5.15,9.09-10,15.94-17.26,19.31c-4.22,1.96-6.22,0.8-18.72,1.7
	c-18.78,1.34-17.44,3.49-23.03,2.44c-14.4-2.69-16.27-15.61-28.64-15.72c-8.1-0.07-8.86,5.46-15.89,4.39
	c-11.78-1.79-18.86-18.69-21.94-26.04c-1.85-4.43-2.7-6.7-2.8-9.76c-0.28-8.34,4.78-15.9,11.49-22.33c4.7-4.51,9.52-8.54,7.64-15.98
	c-1.32-5.23-5.28-7.1-10.01-6.65c-5.09,0.49-9.51,2.46-12.49,5.96c-1.9,2.24-2.59,4.39-3.16,5.93
	c-4.26,11.66-9.54,13.94-12.14,21.47c-1.61,4.66-2.36,11.84,2.07,22.48c2.14,3.25,5.65,8.17,10.69,13.61
	c3,3.23,6.13,5.92,9.59,11.07c2.62,3.9,3.94,5.86,4.04,7.63c0.46,8.13-12.88,12.11-11.66,18.33c0.55,2.82,3.84,4.8,6.2,5.43
	c1.79,0.47,4.01,0.42,7.23-1.03c7.6-3.43,8.09-8.91,13.3-12.64c7.44-5.32,19.89-3.35,27.3,1.57c4.86,3.22,8.54,8.8,10.67,17.54
	c0.87,3.59,2.59,7.54,7.36,7.13c3.82-0.33,5.01-4.02,5.43-6.94c2.07-14.49,12.68-13.34,21.24-9.68c13.39,5.73,2.27,14.05-0.68,19.93
	c-10.11,20.17-36.5,69.82-38.48,108.11c-1.51,29.26,7.83,52.49,11.73,61.09c22.14,48.82,81.06,96.81,148.02,85.52
	C881.91,807.8,931.67,715.12,889.35,618.96z M762.71,805.19c-83.74,0.12-141.68-81.15-112.8-163.05
	c24.45-69.33,65.85-130.36,105.55-191.83c8.77-13.57,12.29-0.39,15.21,4.26c26.16,41.65,53.04,82.88,75.89,126.54
	c11.69,22.34,24.43,44.09,31.75,68.5C901.49,726.98,843.57,805.07,762.71,805.19z"/>
<path class="st7" d="M586.13,737.63c-6.15,4.79-15.54,11.2-28.05,16.59c-9.98,4.3-22.12,9.62-38.32,9.42
	c-12.75-0.16-25.45-3.62-38.01-10.35c-27.23-14.6-42.16-69.81-26.27-95.69c9.39-15.3,20.83-15.71,32.66-2.09
	c8.49,9.77,13.35,16.3,18.3,15.35c0.82-0.16,3.49-0.9,5.14-3.24c0,0,1.1-1.56,1.33-3.53c0.52-4.59-6.16-7.38-12.89-16.85
	c-2.94-4.14-8.16-8.57-7.34-12.9c0.27-1.43,1.32-2.42,3.26-4.36c3.2-3.18,6.6-5.46,14.26-9.52c5.33-2.82,8.03-4.24,9.25-4.3
	c6.54-0.36,9.08,5.25,13.57,4.05c3.9-1.05,7.25-6.7,6.2-10.85c-1.51-5.95-10.92-4.3-14.56-11.63c-2.84-5.73,1.11-10.38-2.72-14.38
	c-2.03-2.13-5.44-3.22-8.31-2.41c-3.14,0.89-4.7,3.8-5.94,6.2c-3.47,6.72-1.37,10.39-3.62,15.89c-1.41,3.45-4.34,5.71-10.18,10.24
	c-8.71,6.74-12.71,3.84-26.13,14.81c-3.63,2.96-7.62,8.17-13.03,5.37c-5.44-2.82-3.2-9.06-3.2-13.79
	c0.01-60.65,0.57-121.31,0.15-181.96c-0.1-15.17,6.66-24.72,18.17-32.95c11.76-8.41,22.93-17.63,34.3-26.57
	c6.37-5.01,8.52-12.13,3.62-18.19c-4.66-5.75-10.74-0.38-14.91,2.67c-9.13,6.7-17.36,14.64-26.42,21.45
	c-3.66,2.75-7.49,9.04-12.64,5.17c-2.43-1.83-2.09-8.03-2.1-12.25c-0.06-32.85,0.83-65.73-0.04-98.56
	c-0.6-23,9.92-38.59,28.41-49.85c46.12-28.08,108.95,0.47,117.06,53.71c2.06,13.5,4.6,19.2,20.72,18.14
	c30.23-1.98,51.29,15.67,65.18,40.86c12.35,22.4,7.69,42.59-12.99,58.57c-5.21,4.02-6.71,9.31-2.1,14.78
	c4.56,5.42,9.75,2.53,13.22-0.91c8.14-8.07,16.15-8.49,25.24-2.02c4.82,3.43,9.37,2.98,13.17-2.02c3.9-5.14,2.84-10.03-2.08-12.98
	c-7.96-4.77-7.94-11.13-7.31-19.33c3.6-46.51-28.02-88.9-74.63-97.65c-13.16-2.47-18.44-7.34-23.2-19.32
	c-26.42-66.44-108.8-84.22-160.7-34.58c-9.4,8.99-11.95,2.6-17.34-2.34c-52.5-48.06-138.1-26.64-161.04,40.66
	c-3.31,9.71-7.45,13.42-17.97,15c-46.55,6.99-85.39,44.56-79.91,93.8c1.16,10.47-4.78,14.25-11.54,19.27
	c-29.34,21.79-39.6,48.27-29.54,80.92c3.39,11.01,1.53,18.8-3.67,28.16c-14.75,26.58-15.98,55.55,2.9,78.64
	c18.88,23.08,32.86,45.57,35.63,76c1.35,14.83,14.33,26.17,26.85,35.43c17.88,13.24,37.87,20.06,60.07,19.92
	c7.43-0.05,12.04,1.08,16,9.18c34.89,71.41,105.64,84.97,164.29,31.85c5.01-4.54,7.26-6.35,13.37-0.53
	c24.86,23.64,53.9,34,81.83,31.67c23.78-1.99,48.27-10.33,59.54-27.16c0.92-1.38,9.77-14.6,5.94-18.84
	C594.91,735.06,589.36,736.53,586.13,737.63z M432.88,636.36c-1.58,11.79-0.27,23.97-0.27,35.98c0.01,7.58-0.02,15.16,0.02,22.75
	c0.19,43.87-29.04,71.3-72.79,68.29c-37.65-2.59-67.26-30.4-71.74-67.95c-0.74-6.21-2.34-11.03-8.17-13.68
	c-5.96-2.71-9.61,0.51-12.37,5.28c-2.21,3.82-5.74,4.2-9.63,4.69c-26.55,3.38-62.69-20.69-70.92-47.4
	c-7.97-25.88,5.42-52.48,33.29-66.13c4.38-2.15,11.34-3.25,10.1-9.36c-1.43-7.06-8.89-6.49-14.19-5.52
	c-13.92,2.54-27.39,7.5-35.81,19.36c-7.89,11.11-13.28,7.71-20.44-0.15c-20.57-22.58-24.77-58.8-7.62-84.28
	c6.78-10.08,7.77-18.07,3.71-29.48c-8.97-25.18,0.15-47.81,22.68-61.98c6.02-3.79,12.05-7.52,19.24-2.98
	c5.11,3.23,9.47,2.98,13.07-2.15c3.43-4.89,0.39-8.45-2.89-11.49c-18.57-17.19-14.29-36.25-3.97-55.17
	c12.19-22.33,32.57-32.62,57.01-35.89c8.52-1.14,8,6.05,9.71,11.18c2.43,7.31,6.22,12.65,15.24,9.34c8.48-3.11,6.28-9.42,4.98-15.74
	c-6.98-33.8,11.06-65.57,45.21-79.89c32.13-13.47,74.53-2.54,92.22,23.71c2.52,3.74,4.36,7.49,4.32,12.21
	c-0.24,29.06-0.27,58.12-0.52,87.18c-0.04,5.1-0.42,12.08-8.1,7.16c-9.53-6.1-23.58-6.67-26.4-21.71
	c-1.37-7.31-6.85-10.49-14.31-6.18c-7.46,4.31-5.64,9.38-2.28,15.89c5.69,11.04,11.56,19.38,25.41,22.82
	c18.96,4.71,27.11,17.65,26.45,39.39c-1.71,56.81-0.8,113.71-0.13,170.56c0.18,15.61-4.58,21-19.95,15.89
	c-12.01-3.99-24.38-6.63-37.24-5.5c-9.75,0.85-19.02,4.92-18.41,15.18c1.24,20.63-12.62,28.65-26.79,37.13
	c-4.24,2.54-10.96,4.23-9.02,10.16c2.2,6.73,9.49,5.69,14.84,4.12c16.78-4.92,28.46-16.37,35.43-31.94
	c6.02-13.46,14.15-20.9,29.38-15.31C416.5,610.36,436.27,611.08,432.88,636.36z"/>
<path class="st13" d="M325.6,367.79c-4.33,6.07-17.07,25.58-15.02,52.17c1.11,14.41,6.15,25.45,9.82,31.94
	c2.66-1.31,18.81-8.94,36.17-1.63c9.45,3.98,15.02,10.6,17.57,14.12"/>
<path class="st13" d="M320.4,451.91l-16.02,38.98c-2.84,5.13-13.04,22.07-34.62,30.87c-24.52,10-46.26,2.37-51.16,0.52"/>
<text transform="matrix(1 0 0 1 712.5515 714.5062)" class="st7 st14 st15">3</text>
</svg>
