<?xml version="1.0" encoding="utf-8"?>
<!-- Generator: Adobe Illustrator 24.0.2, SVG Export Plug-In . SVG Version: 6.00 Build 0)  -->
<svg version="1.1" id="Layer_1" xmlns="http://www.w3.org/2000/svg" xmlns:xlink="http://www.w3.org/1999/xlink" x="0px" y="0px"
	 viewBox="0 0 1024 1024" style="enable-background:new 0 0 1024 1024;" xml:space="preserve">
<style type="text/css">
	.st0{fill:#64A2BD;}
	.st1{fill:#DEA350;}
	.st2{fill:#5C976F;}
	.st3{fill:#BB6872;}
	.st4{fill:#925DE6;}
	.st5{fill:#CA4941;}
	.st6{fill:#2D3B7F;}
	.st7{fill:#FFFFFF;}
	.st8{fill:none;stroke:#FFFFFF;stroke-width:18.0104;stroke-linecap:round;stroke-linejoin:round;stroke-miterlimit:10;}
	.st9{fill:none;stroke:#FFFFFF;stroke-width:23.5118;stroke-linecap:round;stroke-linejoin:round;stroke-miterlimit:10;}
	.st10{fill:none;stroke:#FFFFFF;stroke-width:20.1529;stroke-linecap:round;stroke-linejoin:round;stroke-miterlimit:10;}
	.st11{fill:none;stroke:#FFFFFF;stroke-width:22.9223;stroke-linecap:round;stroke-linejoin:round;stroke-miterlimit:10;}
	.st12{fill:none;stroke:#FFFFFF;stroke-width:19.6477;stroke-linecap:round;stroke-linejoin:round;stroke-miterlimit:10;}
	.st13{fill:none;stroke:#FFFFFF;stroke-width:18.4735;stroke-linecap:round;stroke-linejoin:round;stroke-miterlimit:10;}
	.st14{fill:none;stroke:#FFFFFF;stroke-width:20;stroke-linecap:round;stroke-linejoin:round;stroke-miterlimit:10;}
	.st15{fill:none;stroke:#FFFFFF;stroke-width:10;stroke-miterlimit:10;}
	.st16{fill:none;stroke:#FFFFFF;stroke-width:20;stroke-miterlimit:10;}
	.st17{fill:none;stroke:#FFFFFF;stroke-width:16.6607;stroke-miterlimit:10;}
	.st18{fill:none;stroke:#FFFFFF;stroke-width:20.5133;stroke-linecap:round;stroke-linejoin:round;stroke-miterlimit:10;}
	.st19{fill:none;stroke:#FFFFFF;stroke-width:15;stroke-miterlimit:10;}
	.st20{fill:none;stroke:#FFFFFF;stroke-width:10;stroke-linecap:round;stroke-linejoin:round;stroke-miterlimit:10;}
	.st21{fill:none;stroke:#000000;stroke-width:6.62;stroke-linecap:round;stroke-linejoin:round;stroke-miterlimit:10;}
	.st22{fill:none;stroke:#FFFFFF;stroke-width:22.5062;stroke-linecap:round;stroke-linejoin:round;stroke-miterlimit:10;}
</style>
<path class="st6" d="M857.31,1024H166.69C74.63,1024,0,949.37,0,857.31V166.69C0,74.63,74.63,0,166.69,0h690.62
	C949.37,0,1024,74.63,1024,166.69v690.62C1024,949.37,949.37,1024,857.31,1024z"/>
<path class="st7" d="M235.39,635.23c-1.1-82.42,22.53-133.35,48.25-183.27c43.77-84.96,95.74-165.07,148.09-244.89
	c9.98-15.22,16.64-15.74,26.1-1.82c56.79,83.54,112.51,167.74,158.79,257.76c2.53,4.92,4.54,10.12,7.14,15
	c3.45,6.48,3.3,11.79-4.08,15.16c-7.06,3.23-11.33,0.57-14.71-6.18c-7.98-15.96-16.53-31.64-24.83-47.45
	c-37.01-70.47-81.45-136.31-125.44-202.47c-7.48-11.25-11.13-11.47-18.44,0.09c-52.34,82.73-105.8,164.79-148.53,253.15
	c-24,49.63-39.31,100.67-27.98,156.95c23.47,116.62,147.46,182.37,256.56,135.4c1.69-0.73,3.42-1.47,4.96-2.46
	c7.63-4.87,13.68-3.9,18.31,4.34c5.8,10.33-3.48,11.54-8.89,13.91c-77.19,33.69-150.55,27.75-217.12-25.12
	C261.89,732.3,236.43,677.13,235.39,635.23z"/>
<path class="st7" d="M854.04,671.12c-1.05,91.66-74.72,164.2-165.46,162.91c-85.98-1.22-157.26-75.91-156.39-163.9
	c0.88-89.59,76.8-164.84,164.36-162.92C782.11,509.09,855.03,584.97,854.04,671.12z M693.26,812.97
	c75.03,0.03,140.29-65.37,140.61-140.91c0.32-76.87-64.77-143.27-140.23-143.05c-77.21,0.22-140.4,64.23-140.44,142.25
	C553.16,750.47,614.91,812.94,693.26,812.97z"/>
<path class="st7" d="M442.25,637.68c-51.75,0.23-89.02-41.51-84.2-90c1.51-15.21,5.65-29.54,12.56-43.24
	c14.99-29.73,35.98-54.91,58.66-78.88c5.97-6.31,11.72-7.36,18.15-0.65c25.7,26.79,49.48,55.16,62.75,90.27
	c13.73,36.3,11.11,70.71-17.63,100.01C477.73,630.32,459.08,636.31,442.25,637.68z M504.02,554.99c-0.37-4.76-0.28-8.37-0.97-11.83
	c-8.13-41.02-33.44-71.91-60.26-101.91c-3.51-3.92-6.07-1.98-8.78,0.87c-26.6,27.93-50.56,57.73-59.91,96.15
	c-6.8,27.95,1.41,52.19,23.89,70.31c20.56,16.57,43.97,18.86,67.69,7.75C491.79,604.11,502.08,581.34,504.02,554.99z"/>
<path class="st7" d="M686.72,595.16l-44.21,45.94c-3.85,4-3.73,10.37,0.27,14.23c4,3.85,10.37,3.73,14.23-0.27l26.75-27.8
	l-0.72,123.5c0,0.02,0,0.04,0,0.06c0,5.53,4.47,10.03,10,10.06c5.56,0.03,10.09-4.45,10.12-10l0.72-123.55l26.1,27.67
	c3.81,4.04,10.18,4.23,14.22,0.41c2.1-1.98,3.16-4.65,3.16-7.32c0-2.48-0.91-4.96-2.74-6.9l-43.34-45.94
	c-1.89-2-4.52-3.14-7.27-3.16C691.27,592.06,688.63,593.18,686.72,595.16z"/>
</svg>
