<?xml version="1.0" encoding="utf-8"?>
<!-- Generator: Adobe Illustrator 24.0.2, SVG Export Plug-In . SVG Version: 6.00 Build 0)  -->
<svg version="1.1" id="Layer_1" xmlns="http://www.w3.org/2000/svg" xmlns:xlink="http://www.w3.org/1999/xlink" x="0px" y="0px"
	 viewBox="0 0 1024 1024" style="enable-background:new 0 0 1024 1024;" xml:space="preserve">
<style type="text/css">
	.st0{fill:#64A2BD;}
	.st1{fill:#DEA350;}
	.st2{fill:#5C976F;}
	.st3{fill:#BB6872;}
	.st4{fill:#925DE6;}
	.st5{fill:#CA4941;}
	.st6{fill:#2D3B7F;}
	.st7{fill:#FFFFFF;}
	.st8{fill:none;stroke:#FFFFFF;stroke-width:18.0104;stroke-linecap:round;stroke-linejoin:round;stroke-miterlimit:10;}
	.st9{fill:none;stroke:#FFFFFF;stroke-width:23.5118;stroke-linecap:round;stroke-linejoin:round;stroke-miterlimit:10;}
	.st10{fill:none;stroke:#FFFFFF;stroke-width:20.1529;stroke-linecap:round;stroke-linejoin:round;stroke-miterlimit:10;}
	.st11{fill:none;stroke:#FFFFFF;stroke-width:22.9223;stroke-linecap:round;stroke-linejoin:round;stroke-miterlimit:10;}
	.st12{fill:none;stroke:#FFFFFF;stroke-width:19.6477;stroke-linecap:round;stroke-linejoin:round;stroke-miterlimit:10;}
	.st13{fill:none;stroke:#FFFFFF;stroke-width:18.4735;stroke-linecap:round;stroke-linejoin:round;stroke-miterlimit:10;}
	.st14{fill:none;stroke:#FFFFFF;stroke-width:20;stroke-linecap:round;stroke-linejoin:round;stroke-miterlimit:10;}
	.st15{fill:none;stroke:#FFFFFF;stroke-width:10;stroke-miterlimit:10;}
	.st16{fill:none;stroke:#FFFFFF;stroke-width:20;stroke-miterlimit:10;}
	.st17{fill:none;stroke:#FFFFFF;stroke-width:16.6607;stroke-miterlimit:10;}
	.st18{fill:none;stroke:#FFFFFF;stroke-width:20.5133;stroke-linecap:round;stroke-linejoin:round;stroke-miterlimit:10;}
	.st19{fill:none;stroke:#FFFFFF;stroke-width:15;stroke-miterlimit:10;}
	.st20{fill:none;stroke:#FFFFFF;stroke-width:10;stroke-linecap:round;stroke-linejoin:round;stroke-miterlimit:10;}
	.st21{fill:none;stroke:#000000;stroke-width:6.62;stroke-linecap:round;stroke-linejoin:round;stroke-miterlimit:10;}
	.st22{fill:none;stroke:#FFFFFF;stroke-width:22.5062;stroke-linecap:round;stroke-linejoin:round;stroke-miterlimit:10;}
</style>
<path class="st2" d="M857.09,1024H166.47C74.41,1024-0.22,949.37-0.22,857.31V166.69C-0.22,74.63,74.41,0,166.47,0h690.62
	c92.06,0,166.69,74.63,166.69,166.69v690.62C1023.78,949.37,949.15,1024,857.09,1024z"/>
<path class="st7" d="M202.47,632.6c-1.1-82.42,22.53-133.35,48.25-183.27c43.77-84.96,95.74-165.07,148.09-244.89
	c9.98-15.22,16.64-15.74,26.1-1.82c56.79,83.54,112.51,167.74,158.79,257.76c2.53,4.92,4.54,10.12,7.14,15
	c3.45,6.48,3.3,11.79-4.08,15.16c-7.06,3.23-11.33,0.57-14.71-6.18c-7.98-15.96-16.53-31.64-24.83-47.45
	c-37.01-70.47-81.45-136.31-125.44-202.47c-7.48-11.25-11.13-11.47-18.44,0.09C351,317.26,297.53,399.32,254.81,487.68
	c-24,49.63-39.31,100.67-27.98,156.95c23.47,116.62,147.46,182.37,256.56,135.4c1.69-0.73,3.42-1.47,4.96-2.46
	c7.63-4.86,13.68-3.9,18.31,4.34c5.8,10.33-3.48,11.54-8.89,13.91c-77.19,33.69-150.55,27.75-217.12-25.12
	C228.97,729.67,203.51,674.5,202.47,632.6z"/>
<path class="st7" d="M821.12,668.49c-1.05,91.66-74.72,164.2-165.46,162.91c-85.98-1.22-157.26-75.91-156.39-163.9
	c0.88-89.59,76.8-164.84,164.36-162.92C749.19,506.45,822.1,582.34,821.12,668.49z M660.34,810.34
	c75.03,0.03,140.29-65.37,140.61-140.91c0.32-76.87-64.77-143.27-140.23-143.05c-77.21,0.22-140.4,64.23-140.44,142.25
	C520.24,747.84,581.99,810.3,660.34,810.34z"/>
<path class="st8" d="M290.89,575.96c-2.21,8.62-11.61,49.08,11.67,90.38c26.3,46.66,73.63,57.7,81.03,59.29"/>
<path class="st7" d="M653.38,749.67l-44.21-45.94c-3.85-4-3.73-10.37,0.27-14.23c4-3.85,10.37-3.73,14.23,0.27l26.75,27.8
	l-0.72-123.5c0-0.02,0-0.04,0-0.06c0-5.53,4.47-10.03,10-10.06c5.56-0.03,10.09,4.45,10.12,10l0.72,123.55l26.1-27.67
	c3.81-4.04,10.18-4.23,14.22-0.41c2.1,1.98,3.16,4.65,3.16,7.32c0,2.48-0.91,4.96-2.74,6.9l-43.34,45.94
	c-1.89,2-4.52,3.14-7.27,3.16C657.93,752.77,655.29,751.65,653.38,749.67z"/>
</svg>
